<svg xmlns="http://www.w3.org/2000/svg" width="1250" height="486.512" viewBox="0 0 1250 486.512"><title>IBM-1956</title><path fill="currentColor" d="M0 479.42v-103.164h50.952v-275.5h-50.952v-100.756h213.149v100.756h-52.293v275.5h53.023v103.164h-213.879zm13.836-13.843h186.186v-75.479h-53.017v-303.185h52.287v-73.041h-185.456v73.041h50.957v303.185h-50.957v75.479zm268.816 13.843v-99.436h53.188v-279.057h-53.188v-100.383h235.018c74.167.283 126.988 61.737 127.235 117.49.248 66.069-32.336 99.627-59.978 117.026 26.952 14.911 43.11 37.257 52.388 58.625a155.451 155.451 0 0 1 12.758 59.238c.07 44.58-20.475 76.869-47.321 97.119-26.856 20.341-59.681 29.327-86.191 29.378h-233.909zm13.845-13.843h220.064c23.391.051 53.874-8.302 77.825-26.547 23.975-18.316 41.755-45.829 41.83-86.108a141.861 141.861 0 0 0-11.579-53.697c-9.701-22.094-26.655-44.389-57.249-57.285l-13.499-5.681 12.964-6.831c27.003-14.557 63.928-41.285 64.204-111.394.045-23.504-11.645-49.668-31.817-69.686a115.197 115.197 0 0 0-81.571-33.951h-221.172v72.688h53.174v306.761h-53.174v71.731zm134.212-74.703v-112.604h107.889v112.604h-107.889zm13.861-13.842h80.166v-84.919h-80.166v84.919zm-6.92-84.92zm-6.941-91.708v-113.319h108.665v113.319h-108.665zm13.861-13.853h80.937v-85.624h-80.937v85.624zm-6.92-85.624zm438.185 149.698v229.288h-162.187v-100.917h53.572v-277.404h-53.572v-100.404h163.777l104.318 221.329 101.971-221.329h166.286v102.056h-54.811v275.752h53.154v100.917h-162.192v-222.326l-104.368 228.925zm224.174-24.904v240.339h134.488v-73.222h-53.164v-303.436l54.815-.01v-74.36h-143.59l-110.663 240.268-113.253-240.269h-141.142v72.728h53.562v305.079h-53.562v73.222h134.488v-247.754l13.251-2.841 106.63 237.448 104.922-230.063z"/></svg>