<svg xmlns="http://www.w3.org/2000/svg" viewBox="0 0 1250 500.074" enable-background="new 0 0 1250 500.074"><path d="M0 0h243.415v19.212h-243.415zm0 39.835h243.415v19.223h-243.415zm0 39.836h243.415v19.222h-243.415zm69.292 39.845h104.832v19.223h-104.832zm0 39.835h104.832v19.223h-104.832zm0 39.834h104.832v19.223h-104.832zm0 39.845h104.832v19.212h-104.832zm0 39.826h104.832v19.223h-104.832zm0 39.845h104.832v19.212h-104.832zm0 39.825h104.832v19.223h-104.832zm-69.292 39.845h243.415v19.233h-243.415zm0 39.836h243.415v19.223h-243.415zm0 39.845h243.415v19.223h-243.415zm973.079 22.022l.992-2.8h-1.974zm276.921-497.867h-193.969l-6.215 17.005h200.184zm-362.885-.323l-191.491-.182v17.51h197.994zm14.229 37.951h-205.72v19.222h212.928zm348.656 0h-207.684l-7.007 19.222h214.691zm0 39.836h-222.206l-6.996 19.221h229.202zm-333.726 0h-220.65v19.06l68.154.161h159.708zm14.934 39.845h-167.43v19.222h174.628zm250.12 0h-168.044l-7.007 19.222h175.051zm0 39.835h-182.566l-6.996 19.222h189.562zm-235.201 0h-182.349v19.222h189.547zm14.929 39.834h-197.278v19.223h106.262v-12.523l4.392 12.523h93.837zm220.272 0h-197.077l-6.996 19.223h94.964l4.413-12.523v12.523h104.696zm-292.943 59.058h169.807l6.774-19.213h-183.311zm188.247-19.213h104.696v19.212h-104.696zm-312.854 0h106.262v19.212h-106.262zm0 39.826h106.262v19.223h-106.262zm312.854 0h104.696v19.223h-104.696zm-174.295 19.223h141.843l6.759-19.223h-155.332zm-138.559 20.622h106.262v19.212h-106.262zm152.51 19.212h113.874l6.76-19.212h-127.362zm160.344-19.212h104.696v19.212h-104.696zm0 39.825h104.696v19.223h-104.696zm-146.396 19.222h85.903l6.76-19.222h-99.388zm-166.458-19.222h106.262v19.223h-106.262zm180.415 59.078h57.919l6.759-19.233h-71.412zm305.807-19.233h-173.368v19.233h173.368zm-554.361 0v19.233h174.401v-19.233h-106.262zm380.993 39.836h173.368v19.223h-173.368zm-118.482 19.222h29.934l6.769-19.222h-43.443zm-262.511-19.222h174.401v19.223h-174.401zm380.993 39.845v20.088h173.368v-20.088zm-380.993 0h174.401v19.223h-174.401zm276.458 19.222h1.974l6.769-19.222h-15.482zm-428.732-495.572h-265.527v17.51h319.588c-28.172-13.862-54.061-17.51-54.061-17.51zm85.879 38.133h-351.406v19.223h369.467c-5.374-7.264-11.509-13.632-18.061-19.223zm-73.362 59.057h109.389c-1.475-6.86-3.53-13.268-6.094-19.222h-381.339v19.222h278.044zm0 39.846h111.082c.544-4.897.837-9.954.837-15.244 0-1.349-.031-2.67-.076-3.979h-111.843v19.223zm-207.569-19.222h102.852v19.223h-102.852zm207.569 59.057h99.85c2.856-5.964 5.32-12.352 7.268-19.223h-107.118v19.223zm-207.569-19.222h102.852v19.223h-102.852zm294.847 39.834h-294.847v19.223h277.173c6.134-5.52 12.174-11.898 17.674-19.223zm-67.932 49.437s8.881-2.841 21.13-9.591h-248.045v19.212h248.145c-12.294-6.689-21.23-9.621-21.23-9.621zm-19.346 49.457h88.376c-5.576-7.304-11.766-13.702-18.061-19.223h-277.884v19.223h207.569zm-207.569 20.622h102.852v19.212h-102.852zm207.569 19.212h108.08c-1.813-6.851-4.211-13.259-7.057-19.212h-101.023v19.212zm0 39.835h111.596c.201-3.123.323-6.317.323-9.6 0-3.295-.131-6.479-.379-9.622h-111.54v19.222zm-207.569-19.222h102.852v19.223h-102.852zm316.118 39.845h-386.593v19.233h380.186c2.619-5.964 4.79-12.362 6.407-19.233zm-18.365 39.836h-368.228v19.223h350.211c6.543-5.592 12.658-11.97 18.017-19.223zm-368.228 39.845v19.223h248.457s34.649-2.368 69.654-19.223h-318.111z" fill="#4181C2"/></svg>