<svg xmlns="http://www.w3.org/2000/svg" width="1250" height="499.723" viewBox="0 0 1250 499.7231"><defs><style>.cls-1{fill:#4181c2;}</style></defs><title>IBM-8-bar-1972</title><path class="cls-1" d="M0 0h243.342v34.271h-243.342zm539.759 0h9.031l8.535 1.359 8.54 1.608 8.655 1.856 8.66 2.847 7.917 3.218 7.918 3.836 8.042 4.207 7.3 5.072 7.053 5.071 5.443 5.196h-348.626v-34.27h261.532zm155.629 0h197.819l12.124 34.27h-209.943v-34.27zm358.648 0h195.964v34.27h-208.088l12.124-34.27zm-1054.036 66.689h243.342v33.771h-243.342zm69.523 66.066h104.044v34.524h-104.044zm0 66.317h104.044v34.518h-104.044zm581.949-132.383l1.857 3.214 3.836 8.043 3.219 8.908 4.077 13.607h-386.234v-33.772h373.245zm-303.716 66.066h103.918v34.524h-103.918zm319.922 0l-.246 5.446-.989 8.908-1.365 8.661-2.099 8.535-.988 2.974h-105.656v-34.524h111.343zm-20.413 66.317l-3.217 4.826-5.446 7.053-5.685 6.679-6.064 6.311-6.683 5.815-5.813 3.834h-266.601v-34.518h299.509zm48.123-132.383h221.079l12.124 33.772h-233.203v-33.772zm554.612 0v33.772h-231.097l11.749-33.772h219.348zm-484.96 66.066h174.436l12.128 34.524h-186.564v-34.524zm417.164 0v34.524h-186.681l11.874-34.524h174.807zm-301.989 100.835h187.185l10.514-30.684v30.684h104.29v-34.518h-197.695l-10.889 30.684-10.884-30.684h-197.696v34.518h104.29v-30.93l10.885 30.93zm-880.215 231.369h243.342v34.765h-243.342zm0-66.813h243.342v34.768h-243.342zm69.523-132.383h104.044v34.146h-104.044zm0 66.314h104.044v34.519h-104.044zm544.834-66.314l5.813 4.203 6.683 5.692 6.064 6.432 5.685 6.685 5.446 7.05 3.217 4.084h-299.509v-34.146h266.601zm-266.601 66.314h103.918v34.519h-103.918zm314.235 0l.988 3.34 2.099 8.537 1.365 8.537.989 8.908.246 5.196h-111.343v-34.518h105.656zm2.47 66.069l-1.482 7.05-2.595 8.291-3.219 8.289-3.836 8.044-1.857 3.094h-373.245v-34.768h386.234zm-37.608 66.812l-6.683 5.566-7.048 5.445-7.3 4.824-7.917 4.209-8.043 3.834-7.917 3.091-8.66 2.972-8.657 1.857-8.293 1.605-8.905.995-8.907.367h-260.296v-34.765h348.626zm138.187-199.195h104.29v34.146h-104.29zm279.101 34.146h-141.405l-11.753-34.146h165.153l-11.995 34.146zm33.773-34.146h104.29v34.146h-104.29zm-312.874 66.314h104.29v34.519h-104.29zm268.583 0l-11.878 34.518h-96.247l-11.877-34.518h120.002zm44.291 0h104.29v34.519h-104.29zm-382.526 66.069h173.943v34.768h-173.943zm315.473 0l-11.757 34.768h-50.969l-11.877-34.768h74.603zm67.053 0h172.086v34.768h-172.086zm-382.526 66.813h173.943v34.765h-173.943zm382.526 0h172.086v34.765h-172.086zm-101.819 34.764l11.878-34.765h-28.702l11.757 34.765h5.067z" id="IBM_8-bar_1972"/></svg>