<?xml version="1.0" encoding="utf-8"?>
<!-- Generator: Adobe Illustrator 15.1.0, SVG Export Plug-In . SVG Version: 6.00 Build 0)  -->
<!DOCTYPE svg PUBLIC "-//W3C//DTD SVG 1.1//EN" "http://www.w3.org/Graphics/SVG/1.1/DTD/svg11.dtd">
<svg version="1.1" id="Layer_1" xmlns="http://www.w3.org/2000/svg" xmlns:xlink="http://www.w3.org/1999/xlink" x="0px" y="0px"
	 width="520px" height="600px" viewBox="0 0 520 600" enable-background="new 0 0 520 600" xml:space="preserve">
<g>
	<path d="M2.236,7.318h17.16c10.713,0,18.149,6.864,18.149,18.669c0,11.856-7.072,18.513-18.617,18.513H2.236V7.318z M18.045,35.504
		c4.992,0,8.476-3.225,8.476-9.517c0-6.136-3.276-9.672-8.476-9.672h-4.94v19.189H18.045z"/>
	<path d="M40.092,7.318h9.829v7.437h-9.829V7.318z M40.092,17.979h9.829V44.5h-9.829V17.979z"/>
	<path d="M51.896,35.92h9.412c0.156,2.184,1.508,3.484,4.004,3.484c1.924,0,3.38-0.676,3.38-2.288c0-2.184-3.068-2.444-6.5-2.964
		c-4.472-0.676-9.621-1.872-9.621-8.528c0-5.46,5.564-8.476,12.064-8.476c8.061,0,12.272,3.016,12.637,8.216h-9.256
		c-0.26-1.976-1.716-2.392-3.328-2.392c-1.456,0-2.808,0.572-2.808,1.924c0,1.508,2.444,1.82,5.46,2.236
		c4.836,0.676,10.973,1.768,10.973,9.152c0,6.344-5.772,9.1-13.053,9.1C57.408,45.384,51.947,42.004,51.896,35.92z"/>
	<path d="M80.651,17.979h9.36v3.12h0.156c1.924-2.496,4.628-3.952,8.268-3.952c7.125,0,11.232,6.344,11.232,14.041
		c0,8.685-4.576,14.196-11.648,14.196c-3.172,0-5.616-1.196-7.384-3.38h-0.156v11.284h-9.828V17.979z M99.684,31.604
		c0-4.056-1.664-6.604-4.576-6.604c-3.016,0-4.992,2.809-4.992,6.604c0,3.848,1.976,6.552,4.992,6.552
		C98.02,38.156,99.684,35.66,99.684,31.604z"/>
	<path d="M112.111,7.318h10.088V44.5h-10.088V7.318z"/>
	<path d="M141.491,41.588h-0.104c-1.769,2.444-4.576,3.588-8.009,3.588c-5.096,0-8.84-2.756-8.84-7.956
		c0-5.876,4.524-7.592,9.62-8.164c5.616-0.624,7.124-1.3,7.124-2.964c0-1.456-0.676-2.548-2.808-2.548
		c-2.132,0-3.225,1.248-3.484,3.172h-9.309c0.208-5.252,4.265-9.568,12.585-9.568c4.056,0,6.656,0.52,8.684,1.768
		c2.756,1.716,4.108,4.42,4.108,7.956v13.261c0,2.236,0.156,3.432,0.988,3.952V44.5h-9.672
		C142.012,43.876,141.699,43.044,141.491,41.588z M141.543,34.88v-2.34c-0.936,0.468-2.132,0.884-3.796,1.248
		c-2.86,0.624-3.744,1.456-3.744,3.016c0,1.768,1.456,2.548,3.068,2.548C139.359,39.352,141.543,38.052,141.543,34.88z"/>
	<path d="M155.479,45.696h3.276c2.184,0,3.068-0.572,3.068-1.977c0-0.832-0.572-2.236-1.196-3.796l-8.476-21.945h10.348
		l3.276,10.661c0.832,2.704,1.561,6.448,1.561,6.448h0.104c0,0,0.78-3.744,1.612-6.448l3.224-10.661h9.776L173.003,44.5
		c-2.236,6.552-5.356,8.788-10.712,8.788h-6.812V45.696z"/>
	<path d="M191.669,7.318h19.241c3.64,0,6.344,0.884,8.32,2.393c2.236,1.716,3.536,4.264,3.536,7.332
		c0,3.536-1.508,5.772-4.628,7.124v0.156c4.056,1.3,6.396,4.732,6.396,8.944c0,4.004-1.612,7.021-4.264,8.893
		c-2.236,1.56-5.148,2.34-8.997,2.34h-19.605L191.669,7.318L191.669,7.318z M209.09,21.775c2.08,0,3.484-0.988,3.484-2.964
		c0-1.924-1.456-3.068-3.536-3.068h-6.708v6.032H209.09z M210.078,35.972c2.34,0,3.952-1.404,3.952-3.64
		c0-2.392-1.769-3.588-4.004-3.588h-7.696v7.229L210.078,35.972L210.078,35.972z"/>
	<path d="M226.821,7.318h10.088V44.5h-10.088V7.318z"/>
	<path d="M256.201,41.588h-0.104c-1.769,2.444-4.576,3.588-8.009,3.588c-5.096,0-8.84-2.756-8.84-7.956
		c0-5.876,4.524-7.592,9.62-8.164c5.616-0.624,7.124-1.3,7.124-2.964c0-1.456-0.676-2.548-2.808-2.548
		c-2.132,0-3.225,1.248-3.484,3.172h-9.309c0.208-5.252,4.265-9.568,12.585-9.568c4.056,0,6.656,0.52,8.685,1.768
		c2.756,1.716,4.106,4.42,4.106,7.956v13.261c0,2.236,0.155,3.432,0.987,3.952V44.5h-9.672
		C256.722,43.876,256.409,43.044,256.201,41.588z M256.253,34.88v-2.34c-0.936,0.468-2.132,0.884-3.796,1.248
		c-2.86,0.624-3.744,1.456-3.744,3.016c0,1.768,1.456,2.548,3.068,2.548C254.069,39.352,256.253,38.052,256.253,34.88z"/>
	<path d="M268.42,31.292c0-8.06,5.824-14.092,14.561-14.092c7.488,0,12.48,4.42,13.156,10.608h-9.464
		c-0.521-2.393-1.664-3.744-3.796-3.744c-3.018,0-4.473,2.756-4.473,7.228c0,4.42,1.561,7.125,4.576,7.125
		c2.393,0,3.588-1.612,3.849-4.628h9.464c0,6.552-5.355,11.544-13.312,11.544C274.244,45.332,268.42,39.352,268.42,31.292z"/>
	<path d="M310.279,34.983l-2.027,2.236v7.28h-9.672V7.318h9.672v18.565l6.396-7.904h11.022l-8.841,9.776l9.881,16.745h-11.129
		L310.279,34.983z"/>
	<path d="M335.238,34.464c0-6.553,4.473-10.089,10.141-12.013c-0.988-1.56-1.664-3.588-1.664-5.98c0-6.292,5.46-9.828,11.544-9.828
		c5.723,0,10.868,2.756,10.868,9.101c0,4.472-3.482,7.384-8.58,9.256l3.226,5.252c0.778-1.04,1.509-2.444,1.977-3.9h8.425
		c-1.146,4.056-3.381,7.384-6.345,10.504l4.731,7.645h-11.647l-1.196-2.132c-2.34,1.612-5.407,2.6-8.788,2.6
		C341.635,44.916,335.238,42.264,335.238,34.464z M349.436,37.376c1.509,0,2.757-0.572,3.691-1.145l-4.473-7.696
		c-1.871,0.832-3.433,2.34-3.483,4.732C345.066,35.92,346.73,37.376,349.436,37.376z M352.503,16.471c0,1.456,0.78,2.86,1.77,3.796
		c1.561-0.676,3.534-2.08,3.534-4.316c0-1.456-0.778-2.704-2.496-2.704C353.646,13.247,352.503,14.495,352.503,16.471z"/>
	<path d="M386.613,7.318h10.713L390.15,44.5h-10.714L386.613,7.318z"/>
	<path d="M397.845,17.979h3.38l1.664-8.581h9.465l-1.662,8.581h4.938l-1.195,5.876h-4.938l-2.08,10.972
		c-0.364,2.08,0.26,2.756,2.444,2.756c0.52,0,1.3-0.052,1.872-0.104l-1.354,6.864c-1.144,0.312-2.704,0.676-4.836,0.676
		c-6.5,0-8.996-3.016-7.853-8.892l2.341-12.272h-3.381L397.845,17.979z"/>
	<path d="M429.097,41.588h-0.104c-1.978,2.444-4.731,3.588-7.124,3.588c-5.2,0-8.216-2.964-8.216-7.488
		c0-5.928,4.004-8.372,10.452-8.736c5.513-0.312,7.902-0.728,7.902-3.328c0-1.092-0.676-2.08-2.496-2.08
		c-2.234,0-3.536,1.092-4.056,3.172h-9.205c1.04-5.616,5.148-9.568,13.833-9.568c2.86,0,5.772,0.364,8.008,1.82
		c2.444,1.612,4.005,4.524,3.019,9.465l-2.288,11.7c-0.469,2.236-0.364,3.432,0.153,3.952l-0.052,0.416h-9.412
		C429.253,43.876,429.097,42.732,429.097,41.588z M430.449,34.983l0.468-2.34c-1.04,0.468-2.288,0.78-3.952,1.04
		c-1.769,0.26-4.004,0.728-4.004,3.172c0,1.769,1.146,2.444,2.912,2.444C427.9,39.3,429.771,38.312,430.449,34.983z"/>
	<path d="M448.596,7.318h9.935L451.352,44.5h-9.932L448.596,7.318z"/>
	<path d="M459.984,17.979h9.672L464.508,44.5h-9.672L459.984,17.979z M462.012,7.318h9.673l-1.402,7.437h-9.673L462.012,7.318z"/>
	<path d="M469.343,33.58c0-9.205,6.24-16.38,15.705-16.38c6.916,0,12.064,3.276,12.22,10.608h-9.15
		c-0.155-2.132-0.832-3.796-3.275-3.796c-4.106,0-5.771,5.824-5.771,9.672c0,2.548,0.884,4.784,3.69,4.784
		c2.186,0,4.058-1.508,4.836-4.68h9.103c-1.248,7.436-6.97,11.493-13.833,11.544C475.739,45.332,469.343,42.108,469.343,33.58z"/>
	<path d="M2.548,59.318h15.861c10.296,0,17.212,7.437,17.212,18.825c0,6.552-2.288,11.804-6.448,14.977
		c-2.912,2.184-6.656,3.38-11.336,3.38H2.548V59.318z M17.161,88.752c6.032,0,9.152-3.796,9.152-10.608
		c0-6.761-3.276-11.129-9.048-11.129h-5.512v21.737H17.161z"/>
	<path d="M38.688,59.318h8.476v6.864h-8.476V59.318z M38.688,69.875h8.476V96.5h-8.476V69.875z"/>
	<path d="M49.607,87.868h8.008c0.312,2.652,2.08,3.952,4.888,3.952c2.548,0,4.16-0.936,4.16-2.652c0-2.393-3.224-2.652-6.76-3.276
		c-4.628-0.78-9.568-2.028-9.568-8.269c0-5.616,5.2-8.528,11.493-8.528c7.54,0,11.596,3.276,12.012,8.528h-7.8
		c-0.312-2.392-1.924-3.12-4.264-3.12c-2.08,0-3.692,0.78-3.692,2.444c0,1.872,3.016,2.132,6.396,2.756
		c4.68,0.78,10.192,1.977,10.192,8.789c0,5.824-5.148,8.84-12.117,8.84C54.756,97.332,49.867,93.744,49.607,87.868z"/>
	<path d="M77.427,69.875h8.112v3.224h0.156c1.82-2.392,4.42-4.004,8.061-4.004c7.072,0,11.388,6.084,11.388,14.093
		c0,8.632-4.628,14.145-11.596,14.145c-3.433,0-5.876-1.352-7.541-3.588h-0.104v11.544h-8.477L77.427,69.875L77.427,69.875z
		 M96.563,83.5c0-4.576-1.716-7.592-5.356-7.592c-3.692,0-5.564,3.276-5.564,7.592s2.08,7.28,5.72,7.28
		C94.588,90.78,96.563,88.023,96.563,83.5z"/>
	<path d="M108.055,59.318h8.581V96.5h-8.581V59.318z"/>
	<path d="M119.495,89.063c0-5.876,4.68-7.644,10.192-8.372c4.992-0.624,6.76-1.144,6.76-2.964c0-1.716-1.092-2.86-3.64-2.86
		c-2.704,0-4.057,1.196-4.316,3.432h-7.8c0.208-4.94,4.004-9.152,12.064-9.152c4.004,0,6.708,0.728,8.632,2.184
		c2.288,1.664,3.38,4.264,3.38,7.592V92.34c0,2.132,0.208,3.328,0.937,3.796V96.5h-8.217c-0.416-0.572-0.676-1.612-0.884-2.964
		H136.5c-1.56,2.236-3.9,3.64-7.904,3.64C123.291,97.176,119.495,94.316,119.495,89.063z M136.655,86.983v-3.172
		c-1.092,0.572-2.652,0.988-4.368,1.404c-3.276,0.728-4.628,1.56-4.628,3.588c0,2.132,1.56,2.964,3.64,2.964
		C134.472,91.768,136.655,89.844,136.655,86.983z"/>
	<path d="M149.238,98.684h2.912c2.496,0,3.484-0.988,3.484-2.808c0-1.144-0.521-2.704-1.612-5.512l-7.853-20.489h8.944l3.588,11.336
		c0.832,2.6,1.664,6.136,1.664,6.136h0.104c0,0,0.728-3.536,1.56-6.136l3.484-11.336h8.477l-9.204,26.989
		c-2.132,6.24-4.681,8.424-10.037,8.424h-5.512L149.238,98.684L149.238,98.684z"/>
	<path d="M184.441,59.318h17.941c3.848,0,6.708,0.937,8.684,2.548c2.132,1.768,3.225,4.16,3.225,7.125c0,3.692-1.924,6.032-5.2,7.28
		v0.156c4.056,1.248,6.656,4.68,6.656,9.1c0,3.744-1.353,6.448-3.796,8.32c-2.184,1.716-5.252,2.652-9.152,2.652h-18.357
		L184.441,59.318L184.441,59.318z M201.03,74.035c2.652,0,4.472-1.3,4.472-3.744c0-2.34-1.716-3.692-4.42-3.692h-7.54v7.437
		L201.03,74.035L201.03,74.035z M201.758,89.116c3.016,0,4.888-1.716,4.888-4.368c0-2.964-2.184-4.472-4.992-4.472h-8.112v8.84
		H201.758z"/>
	<path d="M218.137,83.239c0-8.008,5.72-14.092,14.249-14.092c8.581,0,14.197,6.084,14.197,14.092
		c0,8.009-5.616,14.093-14.197,14.093C223.857,97.332,218.137,91.248,218.137,83.239z M238.001,83.239
		c0-4.836-1.976-8.112-5.668-8.112s-5.616,3.276-5.616,8.112c0,4.836,1.924,8.061,5.616,8.061S238.001,88.076,238.001,83.239z"/>
	<path d="M249.493,59.318h8.581V96.5h-8.581V59.318L249.493,59.318z"/>
	<path d="M260.984,83.188c0-8.32,4.783-14.093,11.646-14.093c3.744,0,5.876,1.562,7.438,3.796h0.156V59.318h8.477V96.5h-8.112
		v-3.588h-0.104c-1.61,2.756-4.366,4.42-7.853,4.42C265.82,97.332,260.984,92.08,260.984,83.188z M280.434,83.188
		c0-4.472-1.82-7.696-5.513-7.696c-3.38,0-5.356,3.12-5.356,7.592c0,4.628,1.979,7.541,5.252,7.541
		C278.354,90.624,280.434,87.556,280.434,83.188z"/>
	<path d="M299.309,86.724c0-6.24,4.68-9.88,10.037-11.752c-1.146-1.768-1.873-3.9-1.873-6.344c0-5.876,4.836-9.517,10.765-9.517
		c5.098,0,10.142,2.548,10.142,8.633c0,4.68-3.433,7.592-8.269,9.516l3.534,5.928c0.886-1.404,1.718-3.276,2.289-5.304h7.279
		c-1.092,4.524-3.225,8.268-5.876,11.388l4.421,7.229h-9.881l-1.248-2.132c-2.288,1.56-5.305,2.756-9.049,2.756
		C305.186,97.124,299.309,94.108,299.309,86.724z M317.457,88.855l-5.098-8.632c-2.287,0.936-4.367,2.808-4.42,5.668
		c-0.052,2.86,1.77,4.576,4.731,4.576C314.545,90.468,316.104,89.792,317.457,88.855z M320.889,68.055
		c0-1.508-0.778-2.964-2.651-2.964c-1.715,0-2.858,1.404-2.858,3.432c0,1.56,0.677,3.016,1.716,4.264
		C318.965,71.903,320.889,70.499,320.889,68.055z"/>
	<path d="M349.384,59.318h9.05L351.256,96.5h-9.1L349.384,59.318z"/>
	<path d="M359.264,88.596l2.602-13.417h-3.38l1.039-5.304h3.381l1.61-8.424h8.164l-1.664,8.424h4.732l-1.04,5.304h-4.731
		l-2.393,12.428c-0.363,2.08,0.26,2.809,2.236,2.809c0.623,0,1.664-0.052,1.976-0.104l-1.196,6.032
		c-0.571,0.208-2.234,0.468-4.004,0.468C360.668,96.812,358.119,94.264,359.264,88.596z"/>
	<path d="M374.186,89.479c0-6.5,4.839-8.372,11.339-8.84c5.252-0.364,7.384-0.676,7.384-3.276c0-1.508-1.093-2.548-3.328-2.548
		c-2.548,0-4.16,1.144-4.731,3.484H377.1c0.987-5.512,5.147-9.152,12.896-9.152c3.066,0,5.979,0.52,8.061,2.132
		c2.187,1.612,3.383,4.42,2.551,8.788l-2.395,12.272c-0.416,2.028-0.312,3.224,0.156,3.796V96.5h-8.009
		c-0.312-0.624-0.416-1.768-0.416-2.912h-0.104c-1.769,2.08-4.159,3.588-7.28,3.588C377.93,97.176,374.186,94.472,374.186,89.479z
		 M391.242,87.244l0.625-3.276c-1.196,0.572-2.549,0.884-4.524,1.196c-2.132,0.364-5.097,0.52-5.097,3.588
		c0,2.08,1.404,3.016,3.434,3.016C388.539,91.768,390.619,90.156,391.242,87.244z"/>
	<path d="M408.559,59.318h8.479L409.858,96.5h-8.479L408.559,59.318z"/>
	<path d="M419.011,69.875h8.32L422.183,96.5h-8.318L419.011,69.875z M421.039,59.318h8.32l-1.303,6.864h-8.318L421.039,59.318z"/>
	<path d="M427.486,85.527c0-8.736,5.822-16.38,15.133-16.38c6.396,0,11.389,3.016,11.646,10.192h-8.008
		c-0.209-2.34-1.248-4.004-3.849-4.004c-4.628,0-6.604,5.876-6.604,10.349c0,2.964,1.196,5.356,4.524,5.356
		c2.392,0,4.368-1.456,5.2-4.628h7.956c-1.354,6.917-6.604,10.869-13.312,10.92C433.363,97.332,427.486,93.848,427.486,85.527z"/>
	<path d="M2.86,111.318h14.508c9.932,0,16.329,8.009,16.329,18.981c0,6.032-2.028,11.336-5.928,14.613
		c-2.756,2.288-6.344,3.588-11.024,3.588H2.86V111.318z M16.225,142c7.072,0,9.828-4.316,9.828-11.701
		c0-7.385-3.224-12.533-9.62-12.533H10.4V142H16.225z"/>
	<path d="M37.232,111.318h7.072v6.345h-7.072V111.318z M37.232,121.823h7.072V148.5h-7.072V121.823z"/>
	<path d="M47.216,139.868h6.552c0.468,3.068,2.652,4.42,5.824,4.42c3.12,0,4.888-1.196,4.888-3.068c0-2.548-3.38-2.808-7.021-3.536
		c-4.784-0.936-9.464-2.236-9.464-8.061c0-5.772,4.784-8.528,10.868-8.528c7.021,0,10.92,3.484,11.44,8.841h-6.396
		c-0.312-2.86-2.132-3.9-5.148-3.9c-2.756,0-4.576,1.04-4.576,2.964c0,2.288,3.536,2.496,7.333,3.276
		c4.472,0.936,9.412,2.184,9.412,8.424c0,5.356-4.576,8.581-11.232,8.581C51.948,149.28,47.632,145.536,47.216,139.868z"/>
	<path d="M74.099,121.823h6.812v3.328h0.156c1.716-2.34,4.212-4.057,7.853-4.057c7.072,0,11.596,5.772,11.596,14.093
		c0,8.632-4.68,14.093-11.544,14.093c-3.744,0-6.188-1.508-7.696-3.796h-0.104v11.752H74.1L74.099,121.823L74.099,121.823z
		 M93.34,135.396c0-5.044-1.768-8.58-6.136-8.58c-4.42,0-6.188,3.796-6.188,8.58c0,4.836,2.236,8.008,6.448,8.008
		C91.052,143.404,93.34,140.439,93.34,135.396z"/>
	<path d="M103.895,111.318h7.072V148.5h-7.072V111.318z"/>
	<path d="M131.611,145.536h-0.104c-1.353,2.028-3.276,3.588-7.853,3.588c-5.46,0-9.309-2.86-9.309-8.164
		c0-5.876,4.784-7.749,10.713-8.581c4.42-0.624,6.448-0.988,6.448-3.016c0-1.924-1.508-3.172-4.473-3.172
		c-3.328,0-4.94,1.196-5.148,3.744h-6.292c0.208-4.681,3.692-8.789,11.493-8.789c8.008,0,11.232,3.588,11.232,9.829v13.572
		c0,2.028,0.312,3.224,0.936,3.692v0.26h-6.812C132.027,147.98,131.768,146.732,131.611,145.536z M131.664,139.088v-4.004
		c-1.248,0.728-3.172,1.144-4.94,1.56c-3.692,0.832-5.513,1.664-5.513,4.16c0,2.496,1.664,3.38,4.16,3.38
		C129.428,144.184,131.664,141.688,131.664,139.088z"/>
	<path d="M143.103,151.672h2.496c2.809,0,3.952-1.456,3.952-3.64c0-1.456-0.52-3.172-2.028-7.229l-7.176-18.979h7.437l3.952,12.012
		c0.832,2.444,1.716,5.824,1.716,5.824h0.104c0,0,0.728-3.38,1.56-5.824l3.744-12.012h7.124l-9.308,27.353
		c-2.028,5.929-4.004,8.061-9.413,8.061h-4.16V151.672z"/>
	<path d="M177.683,111.318h10.608l5.252,18.669c1.3,4.68,2.34,10.036,2.34,10.036h0.104c0,0,0.988-5.356,2.288-10.036l5.252-18.669
		h10.765V148.5h-7.021v-21.321c0-3.016,0.312-7.696,0.312-7.696h-0.104c0,0-0.832,4.368-1.612,7.072l-6.396,21.945h-7.228
		l-6.24-21.945c-0.78-2.704-1.612-7.072-1.612-7.072h-0.104c0,0,0.312,4.68,0.312,7.696V148.5h-6.916V111.318L177.683,111.318z"/>
	<path d="M218.139,135.136c0-7.904,5.356-14.041,13.156-14.041c8.58,0,13.156,6.553,13.156,16.069h-19.345
		c0.521,4.108,2.809,6.656,6.812,6.656c2.756,0,4.368-1.248,5.148-3.276h6.968c-0.988,4.732-5.2,8.736-12.064,8.736
		C223.131,149.28,218.139,143.092,218.139,135.136z M225.211,132.275h11.856c-0.208-3.38-2.444-5.72-5.668-5.72
		C227.655,126.555,225.835,128.791,225.211,132.275z"/>
	<path d="M246.426,135.188c0-8.32,4.732-14.093,11.388-14.093c3.745,0,6.084,1.716,7.542,3.952h0.154v-13.729h7.072V148.5h-6.812
		v-3.484h-0.104c-1.561,2.548-4.212,4.265-7.956,4.265C251.002,149.28,246.426,143.82,246.426,135.188z M265.666,135.344
		c0-5.097-1.664-8.528-6.188-8.528c-3.9,0-5.876,3.432-5.876,8.372c0,5.148,2.028,8.164,5.668,8.164
		C263.482,143.352,265.666,140.231,265.666,135.344z"/>
	<path d="M277.157,111.318h7.071v6.345h-7.071V111.318z M277.157,121.823h7.071V148.5h-7.071V121.823z"/>
	<path d="M305.654,148.5v-3.12h-0.156c-1.82,2.444-3.9,3.848-7.645,3.848c-5.93,0-9.256-3.796-9.256-9.621v-17.784h7.021v16.588
		c0,3.12,1.403,4.836,4.42,4.836c3.328,0,5.356-2.496,5.356-6.032v-15.393h7.07V148.5H305.654z"/>
	<path d="M317.041,121.823h6.812v3.588h0.155c1.455-2.444,4.057-4.316,7.748-4.316c3.38,0,6.084,1.872,7.384,4.681h0.104
		c1.818-2.912,4.628-4.681,8.008-4.681c5.616,0,8.789,3.641,8.789,9.465v17.94h-7.071v-16.745c0-3.016-1.51-4.576-4.108-4.576
		c-2.963,0-4.783,2.288-4.783,5.824V148.5h-7.072v-16.745c0-3.016-1.508-4.576-4.106-4.576c-2.86,0-4.784,2.288-4.784,5.824V148.5
		h-7.072L317.041,121.823L317.041,121.823z"/>
	<path d="M367.064,139.036c0-5.98,4.836-9.672,9.881-11.493c-1.248-2.028-2.027-4.212-2.027-6.76c0-5.46,4.16-9.205,9.984-9.205
		c4.42,0,9.412,2.392,9.412,8.165c0,4.888-3.537,7.592-8.112,9.62l4.004,6.812c0.987-1.769,1.872-4.16,2.548-6.761h6.188
		c-1.094,4.992-3.12,9.205-5.46,12.325l4.106,6.76h-8.061l-1.302-2.132c-2.234,1.508-5.252,2.912-9.309,2.912
		C372.369,149.28,367.064,145.952,367.064,139.036z M379.546,143.612c2.236,0,4.108-0.78,5.929-2.08l-5.771-9.568
		c-2.652,1.04-5.305,3.224-5.305,6.604C374.396,141.584,376.322,143.612,379.546,143.612z M381.574,120.471
		c0,1.664,0.778,3.225,1.924,4.784c2.184-1.092,4.16-2.548,4.16-5.2c0-1.56-0.885-3.172-2.912-3.172
		C382.979,116.883,381.574,118.391,381.574,120.471z"/>
	<path d="M416.465,111.318h7.438l-7.178,37.182h-7.437L416.465,111.318z"/>
	<path d="M425.461,121.823h3.38l1.612-8.32h6.812l-1.61,8.32h4.472l-0.884,4.68h-4.473l-2.704,13.885
		c-0.416,2.08,0.261,2.912,1.977,2.912c0.78,0,2.08-0.104,2.08-0.104l-0.988,5.2c0,0-1.768,0.156-3.172,0.156
		c-5.408,0-7.956-1.976-6.864-7.488l2.86-14.561h-3.381L425.461,121.823z"/>
	<path d="M454.84,145.588h-0.104c-1.612,1.716-3.588,3.536-7.438,3.536c-4.106,0-8.476-2.34-8.476-7.853
		c0-7.072,5.613-8.372,12.115-8.892c4.991-0.416,6.916-0.624,6.916-3.276c0-1.924-1.509-2.964-4.159-2.964
		c-2.912,0-4.836,1.144-5.46,3.796h-6.24c0.884-5.46,5.096-8.789,11.96-8.789c6.604,0,11.597,2.86,10.141,10.608l-2.496,12.792
		c-0.362,1.82-0.208,3.068,0.208,3.692v0.26h-6.604C454.893,147.928,454.788,146.784,454.84,145.588z M449.536,144.288
		c3.64,0,5.979-2.288,6.5-4.732l0.832-4.212c-1.354,0.624-2.81,0.938-5.097,1.352c-2.549,0.468-6.239,0.312-6.239,3.952
		C445.532,143.04,447.196,144.288,449.536,144.288z"/>
	<path d="M472.571,111.318h6.969l-7.177,37.182h-6.97L472.571,111.318z"/>
	<path d="M482.088,121.823h6.969L483.91,148.5h-6.969L482.088,121.823z M484.116,111.318h6.968l-1.195,6.345h-6.969L484.116,111.318
		z"/>
	<path d="M489.574,137.476c0-8.216,5.46-16.381,14.561-16.381c5.928,0,10.713,2.809,11.076,9.776h-6.812
		c-0.262-2.548-1.664-4.16-4.474-4.16c-5.146,0-7.384,5.876-7.384,10.973c0,3.432,1.508,5.98,5.354,5.98
		c2.602,0,4.63-1.404,5.563-4.576h6.76c-1.455,6.396-6.188,10.192-12.739,10.192C494.982,149.28,489.574,145.64,489.574,137.476z"/>
	<path d="M3.484,163.318h13.521c11.18,0,16.484,7.593,16.484,18.721c0,11.129-5.668,18.461-16.849,18.461H3.484V163.318z
		 M16.484,196.392c8.736,0,12.221-5.616,12.221-14.353c0-8.737-3.12-14.664-11.856-14.664H8.164v29.017H16.484z"/>
	<path d="M38.428,163.318h4.212v5.2h-4.212V163.318z M38.428,173.615h4.212V200.5h-4.212V173.615z"/>
	<path d="M46.643,191.764h4.316c0.572,4.68,3.692,5.98,7.696,5.98c4.42,0,6.24-1.924,6.24-4.42c0-3.016-2.08-3.796-7.02-4.836
		c-5.304-1.092-10.037-2.184-10.037-8.061c0-4.472,3.433-7.384,9.673-7.384c6.656,0,9.932,3.172,10.556,8.424h-4.316
		c-0.416-3.536-2.34-5.096-6.345-5.096c-3.848,0-5.408,1.716-5.408,3.848c0,2.912,2.601,3.484,7.229,4.42
		c5.408,1.092,9.933,2.288,9.933,8.476c0,5.408-4.42,8.165-10.608,8.165C51.167,201.28,47.059,197.796,46.643,191.764z"/>
	<path d="M73.215,173.615h4.212v3.796h0.104c2.028-2.756,4.732-4.42,8.632-4.42c6.812,0,11.544,5.2,11.544,14.145
		c0,8.632-4.42,14.146-11.7,14.146c-3.641,0-6.24-1.092-8.477-3.952h-0.104v11.804h-4.212L73.215,173.615L73.215,173.615z
		 M93.392,187.188c0-6.032-2.548-10.608-7.644-10.608c-5.876,0-8.581,4.784-8.581,10.608c0,5.824,2.34,10.557,8.528,10.557
		C90.844,197.744,93.392,193.271,93.392,187.188z"/>
	<path d="M102.075,163.318h4.212V200.5h-4.212V163.318z"/>
	<path d="M128.646,196.756h-0.052c-1.612,2.08-4.368,4.264-8.944,4.264c-5.097,0-9.101-2.392-9.101-7.488
		c0-6.344,4.992-7.644,11.7-8.684c3.796-0.572,6.448-0.937,6.448-3.849c0-3.016-2.184-4.732-6.032-4.732
		c-4.368,0-6.552,1.872-6.708,5.928h-4.056c0.156-5.2,3.588-9.101,10.712-9.101c5.72,0,9.933,2.132,9.933,8.528v12.793
		c0,2.184,0.52,3.38,2.86,2.86h0.156v3.068c-0.52,0.208-1.196,0.416-2.288,0.416C130.519,200.76,129.062,199.512,128.646,196.756z
		 M128.75,190.567v-4.576c-1.404,0.884-3.848,1.561-6.136,1.977c-4.212,0.78-7.592,1.508-7.592,5.46
		c0,3.588,2.808,4.368,5.564,4.368C126.202,197.796,128.75,193.688,128.75,190.567z"/>
	<path d="M137.798,208.82v-3.744h0.208c0.572,0.312,1.456,0.572,2.86,0.572c1.768,0,2.964-0.676,4.004-3.276l1.04-2.652
		l-10.504-26.104h4.576l6.344,16.744c0.832,2.236,1.82,5.252,1.82,5.252h0.104c0,0,0.937-3.016,1.769-5.252l6.136-16.744h4.473
		l-11.493,29.069c-2.184,5.564-4.264,6.708-7.541,6.708C139.982,209.393,138.942,209.288,137.798,208.82z"/>
	<path d="M172.481,163.318h17.369c6.552,0,10.972,4.108,10.972,10.192c0,4.524-1.976,7.749-6.448,9.205v0.156
		c3.796,1.353,4.992,3.952,5.356,9.465c0.416,5.98,1.04,7.488,1.716,7.956v0.208h-5.044c-0.78-0.676-0.936-2.08-1.352-8.32
		c-0.364-5.46-2.548-7.384-7.541-7.384h-10.348V200.5h-4.681L172.481,163.318L172.481,163.318z M177.162,180.999h11.024
		c5.2,0,7.8-2.6,7.8-6.812c0-4.524-2.08-6.812-7.54-6.812h-11.284V180.999L177.162,180.999z"/>
	<path d="M204.098,187.083c0-7.8,4.992-14.145,13-14.145c8.06,0,12.949,6.344,12.949,14.145s-4.889,14.145-12.949,14.145
		C209.09,201.228,204.098,194.884,204.098,187.083z M225.73,187.083c0-5.928-2.912-10.661-8.632-10.661
		c-5.72,0-8.684,4.732-8.684,10.661c0,5.929,2.964,10.608,8.684,10.608C222.818,197.691,225.73,193.012,225.73,187.083z"/>
	<path d="M234.258,173.615h4.212v3.848h0.104c1.664-2.6,4.524-4.472,7.904-4.472c3.276,0,5.876,1.664,7.02,4.784h0.104
		c1.716-3.068,4.94-4.784,8.216-4.784c4.783,0,8.164,3.068,8.164,8.632V200.5h-4.213v-18.669c0-3.328-2.234-5.304-4.939-5.304
		c-3.484,0-6.604,3.016-6.604,7.228V200.5h-4.212v-18.669c0-3.328-1.872-5.304-4.628-5.304c-3.276,0-6.916,3.016-6.916,7.228V200.5
		h-4.212V173.615z"/>
	<path d="M292.029,196.756h-0.053c-1.611,2.08-4.367,4.264-8.943,4.264c-5.098,0-9.102-2.392-9.102-7.488
		c0-6.344,4.991-7.644,11.699-8.684c3.799-0.572,6.448-0.937,6.448-3.849c0-3.016-2.185-4.732-6.032-4.732
		c-4.367,0-6.552,1.872-6.708,5.928h-4.056c0.154-5.2,3.588-9.101,10.712-9.101c5.72,0,9.935,2.132,9.935,8.528v12.793
		c0,2.184,0.52,3.38,2.857,2.86h0.154v3.068c-0.52,0.208-1.193,0.416-2.287,0.416C293.9,200.76,292.445,199.512,292.029,196.756z
		 M292.133,190.567v-4.576c-1.402,0.884-3.848,1.561-6.136,1.977c-4.212,0.78-7.593,1.508-7.593,5.46
		c0,3.588,2.809,4.368,5.562,4.368C289.585,197.796,292.133,193.688,292.133,190.567z"/>
	<path d="M306.277,177.151h0.104c1.926-2.548,4.629-4.16,8.529-4.16c5.615,0,9.048,3.068,9.048,8.632V200.5h-4.212v-18.513
		c0-3.484-2.288-5.46-6.084-5.46c-4.266,0-7.385,3.016-7.385,7.436V200.5h-4.213v-26.885h4.213V177.151L306.277,177.151z"/>
	<path d="M335.656,191.66c0-6.188,4.629-9.152,9.725-11.701c-1.924-2.808-2.756-5.044-2.756-7.748c0-4.732,3.484-8.528,8.633-8.528
		c3.951,0,7.488,2.704,7.488,7.28c0,4.888-4.005,7.696-8.165,9.984l6.032,9.88c1.145-1.976,2.026-4.368,2.393-7.541h3.588
		c-0.52,4.524-2.026,7.904-4.057,10.713l4.057,6.5h-4.836l-2.08-3.276c-2.496,2.393-5.823,4.004-9.774,4.004
		C340.753,201.228,335.656,198.264,335.656,191.66z M346.161,197.588c3.12,0,5.513-1.248,7.748-3.432l-6.864-11.388
		c-3.38,1.664-7.176,4.004-7.176,8.736C339.869,195.248,342.312,197.588,346.161,197.588z M346.732,171.951
		c0,2.028,0.469,3.588,2.289,6.292c2.702-1.612,5.72-3.536,5.72-7.124c0-2.236-1.354-4.004-3.744-4.004
		C348.396,167.115,346.732,169.091,346.732,171.951z"/>
	<path d="M380.948,163.318h4.575l-7.177,37.182h-4.575L380.948,163.318z"/>
	<path d="M388.229,173.615h3.798l1.664-8.477h4.158l-1.664,8.477h5.148l-0.676,3.38h-5.148l-3.275,17.057
		c-0.416,2.08,0.312,3.016,2.341,3.016c1.04,0,1.925-0.26,2.393-0.468h0.156l-0.729,3.641c-0.728,0.26-1.768,0.416-2.911,0.416
		c-4.16,0-6.291-2.288-5.407-6.761l3.275-16.9h-3.797L388.229,173.615z"/>
	<path d="M417.296,197.068h-0.052c-1.77,2.288-4.68,3.952-8.479,3.952c-5.354,0-8.372-3.536-8.372-7.592
		c0-6.864,5.253-8.269,10.608-8.58c7.385-0.416,9.152-0.884,9.152-4.368c0-3.328-2.602-4.108-5.514-4.16
		c-4.367-0.052-6.863,1.456-7.593,5.408h-4.212c0.938-5.356,5.148-8.685,12.116-8.685c5.2,0,10.089,2.444,8.788,9.152l-2.443,12.429
		c-0.364,1.976-0.156,3.224,2.34,2.756h0.156l-0.625,3.016c-0.52,0.156-1.144,0.364-2.132,0.364
		C418.18,200.76,417.348,199.044,417.296,197.068z M409.652,197.796c5.197,0,7.956-3.588,8.734-7.54l0.729-3.692
		c-1.664,0.936-3.796,1.092-8.271,1.456c-2.08,0.156-6.238,0.468-6.238,5.096C404.607,195.924,406.428,197.796,409.652,197.796z"/>
	<path d="M433.571,163.318h4.16l-7.178,37.182h-4.16L433.571,163.318z"/>
	<path d="M441.526,173.615h4.158l-5.198,26.885h-4.16L441.526,173.615z M443.502,163.318h4.16l-0.987,5.2h-4.16L443.502,163.318z"/>
	<path d="M447.09,189.684c0-8.372,5.616-16.745,14.354-16.745c6.03,0,9.517,3.38,10.034,9.36h-4.212
		c-0.362-3.536-2.132-5.928-6.03-5.928c-6.5,0-9.935,6.864-9.935,13.417c0,4.42,1.924,7.957,7.072,7.957
		c3.796,0,6.761-2.444,7.853-6.708h4.004c-1.508,6.5-6.137,10.192-11.906,10.192C451.666,201.228,447.09,197.276,447.09,189.684z"/>
	<path d="M3.328,215.318h13.208c10.972,0,15.913,7.696,15.913,18.721S27.145,252.5,16.173,252.5H3.328V215.318z M16.068,249.432
		c8.893,0,12.741-5.98,12.741-15.393c0-9.412-3.484-15.652-12.376-15.652h-9.62v31.045H16.068z"/>
	<path d="M37.127,215.318h3.224v4.576h-3.224V215.318z M37.127,225.615h3.224V252.5h-3.224V225.615z"/>
	<path d="M44.095,244.128h3.276c0.468,4.524,3.588,6.344,7.904,6.344c4.472,0,6.812-2.08,6.812-5.2c0-2.964-1.664-3.952-7.177-5.2
		c-5.46-1.248-9.828-2.548-9.828-7.748c0-4.472,3.848-7.28,9.36-7.28c6.396,0,9.36,3.224,9.984,7.956h-3.224
		c-0.364-3.484-2.756-5.304-6.76-5.304c-4.16,0-6.136,1.976-6.136,4.472c0,3.068,2.548,3.796,7.696,4.992
		c5.408,1.145,9.308,2.496,9.308,8.061c0,4.784-3.848,8.008-10.088,8.008C48.047,253.228,44.407,249.328,44.095,244.128z"/>
	<path d="M69.263,225.615h3.224v4.628h0.104c1.872-3.172,4.836-5.2,9.101-5.2c6.448,0,11.128,5.096,11.128,14.041
		c0,8.268-4.264,14.092-11.336,14.092c-4.108,0-6.864-1.612-8.893-4.576h-0.104v12.533h-3.224V225.615z M89.543,239.136
		c0-6.708-2.912-11.389-8.268-11.389c-5.929,0-9.049,5.044-9.049,11.44c0,6.604,2.964,11.284,9.101,11.284
		C86.839,250.472,89.543,245.376,89.543,239.136z"/>
	<path d="M96.979,215.318h3.224V252.5h-3.224V215.318z"/>
	<path d="M104.258,245.636c0-6.396,4.992-7.696,11.077-8.424c5.304-0.624,7.228-0.936,7.228-3.64v-0.521
		c0-3.64-2.288-5.408-6.448-5.408c-4.784,0-7.28,1.976-7.54,5.98h-3.172c0.364-5.2,3.796-8.58,10.712-8.58
		c5.876,0,9.517,2.444,9.517,8.32v14.612c0,1.612,0.624,2.288,1.768,2.34c0.364,0,0.728-0.104,1.196-0.208h0.156v2.34
		c-0.468,0.208-1.144,0.416-2.184,0.416c-2.34,0-3.796-1.196-3.952-3.796v-0.572h-0.156c-1.508,2.132-4.265,4.628-9.413,4.628
		C108.054,253.124,104.258,250.628,104.258,245.636z M122.615,242.775v-4.836c-1.716,0.936-4.368,1.404-6.968,1.768
		c-4.524,0.624-8.008,1.3-8.008,5.928c0,3.744,2.808,4.888,5.98,4.888C119.495,250.524,122.615,246.468,122.615,242.775z"/>
	<path d="M130.727,260.977v-2.86h0.156c0.468,0.156,1.196,0.364,2.444,0.364c2.028,0,3.484-0.884,4.473-3.641l0.884-2.392
		l-10.349-26.833h3.433l6.448,17.368c0.936,2.496,2.132,6.137,2.132,6.137h0.104c0,0,1.144-3.641,2.028-6.137l6.188-17.368h3.328
		l-11.076,29.693c-1.82,4.836-3.952,6.084-7.437,6.084C132.286,261.393,131.559,261.236,130.727,260.977z"/>
	<path d="M163.486,215.318h3.484v33.958h19.813v3.224h-23.297V215.318z"/>
	<path d="M190.837,215.318h3.224v4.576h-3.224V215.318z M190.837,225.615h3.224V252.5h-3.224V225.615z"/>
	<path d="M199.261,254.892h3.12c0.572,3.12,3.641,4.368,7.541,4.368c5.72,0,8.424-2.964,8.424-7.696V247.3h-0.156
		c-1.976,3.016-4.472,4.68-8.528,4.68c-7.072,0-11.544-5.512-11.544-13.417c0-8.736,5.304-13.521,11.544-13.521
		c4.16,0,6.761,1.82,8.528,4.732h0.156v-4.16h3.172v25.845c0,3.016-0.884,5.46-2.496,7.229c-2.028,2.132-4.992,3.224-8.996,3.224
		C203.421,261.912,199.729,258.896,199.261,254.892z M218.554,238.512c0-6.345-2.808-10.765-8.685-10.765
		c-5.304,0-8.424,4.316-8.424,10.868c0,6.137,2.704,10.661,8.372,10.661C215.798,249.276,218.554,244.96,218.554,238.512z"/>
	<path d="M227.081,215.318h3.224v14.405h0.104c1.82-2.704,4.732-4.68,8.996-4.68c4.992,0,8.58,2.964,8.58,8.372V252.5h-3.224
		v-18.772c0-4.057-2.34-5.929-6.137-5.929c-4.576,0-8.32,3.225-8.32,7.645V252.5h-3.224L227.081,215.318L227.081,215.318z"/>
	<path d="M254.9,247.872v-19.605h-4.056v-2.652h4.056v-8.269h3.225v8.269h4.992v2.652h-4.992v19.084c0,1.924,0.884,2.548,2.6,2.548
		c0.729,0,1.664-0.208,2.133-0.416h0.156v2.756c-0.885,0.312-1.82,0.468-2.965,0.468C256.98,252.708,254.9,251.304,254.9,247.872z"
		/>
	<path d="M295.721,252.5l-2.184-3.484c-2.496,2.548-6.085,4.16-9.934,4.16c-5.408,0-10.451-2.86-10.451-9.464
		c0-6.292,4.627-9.152,10.244-11.856c-2.08-3.12-3.019-5.252-3.019-7.904c0-4.524,3.38-8.165,8.271-8.165
		c4.004,0,7.176,2.548,7.176,7.02c0,5.148-4.264,7.904-8.268,9.933l6.604,11.128c1.248-2.132,2.186-4.784,2.757-8.268h2.912
		c-0.624,4.576-2.08,8.112-4.108,10.92l3.692,5.98H295.721z M292.133,246.52l-7.438-12.428c-3.848,1.82-8.163,4.16-8.163,9.516
		c0,4.316,2.964,6.761,7.176,6.761C286.934,250.368,290,248.86,292.133,246.52z M286.256,230.555
		c2.912-1.56,6.346-3.536,6.346-7.644c0-2.496-1.509-4.42-4.16-4.42c-2.911,0-4.783,2.184-4.783,5.304
		C283.656,225.823,284.332,227.591,286.256,230.555z"/>
	<path d="M314.127,252.5h-3.432l7.176-37.182h3.434L314.127,252.5z"/>
	<path d="M323.645,225.615h3.951l1.611-8.269h3.173l-1.562,8.269h4.89l-0.521,2.6H330.3l-3.641,18.825
		c-0.364,1.976,0.208,2.912,2.079,2.912c0.885,0,1.819-0.156,2.289-0.364h0.155l-0.521,2.704c-0.625,0.26-1.562,0.416-2.55,0.416
		c-3.743,0-5.354-2.132-4.627-5.928l3.588-18.565h-3.952L323.645,225.615z"/>
	<path d="M352.971,236.016c1.455-0.624,1.978-1.664,1.978-3.692c0-3.536-2.81-4.68-6.138-4.68c-4.522-0.052-7.177,1.768-8.008,5.824
		h-3.225c0.986-5.2,4.992-8.424,11.388-8.424c5.408,0,10.089,2.496,8.686,9.568l-2.601,13.156c-0.312,1.664,0.104,2.601,1.455,2.601
		c0.312,0,0.678-0.052,1.041-0.104h0.155l-0.416,2.236c-0.468,0.208-0.987,0.364-1.872,0.364c-2.809,0-3.588-1.924-3.432-3.849
		h-0.104c-1.456,2.028-4.108,4.108-8.58,4.108c-4.836,0-8.478-3.016-8.478-7.488c0-5.616,3.899-7.956,9.258-8.528
		C348.238,236.691,351.254,236.743,352.971,236.016z M353.074,242.775l0.884-4.628c-2.496,1.092-5.876,0.988-9.88,1.508
		c-3.484,0.468-6.032,1.872-6.032,5.876c0.052,3.068,2.288,5.044,5.772,5.044C349.486,250.576,352.294,246.728,353.074,242.775z"/>
	<path d="M363.475,252.5h-3.173l7.177-37.182h3.173L363.475,252.5z"/>
	<path d="M372.158,252.5h-3.172l5.198-26.885h3.173L372.158,252.5z M378.45,219.843h-3.173l0.885-4.524h3.172L378.45,219.843z"/>
	<path d="M398.834,233.728c-0.363-3.172-2.132-6.084-6.447-6.084c-7.177,0-10.505,7.488-10.505,14.197
		c0,4.94,2.132,8.632,7.54,8.632c4.108,0,7.229-2.86,8.32-7.228h3.066c-1.454,6.084-5.721,9.932-11.438,9.932
		c-6.345,0-10.712-3.796-10.712-11.388c0-8.112,4.836-16.796,13.832-16.796c5.512,0,8.893,3.276,9.465,8.736L398.834,233.728
		L398.834,233.728z"/>
	<path d="M3.224,267.318h13c10.816,0,15.497,7.801,15.497,18.721c0,10.921-5.044,18.461-15.861,18.461H3.224V267.318z
		 M15.757,302.107c8.996,0,13.156-6.239,13.156-16.068c0-9.828-3.796-16.276-12.792-16.276H5.928v32.344H15.757z"/>
	<path d="M36.244,267.318h2.548v4.16h-2.548V267.318z M36.244,277.615h2.548V304.5h-2.548V277.615z"/>
	<path d="M42.432,296.388h2.601c0.364,4.42,3.536,6.604,8.008,6.604c4.524,0,7.229-2.236,7.229-5.772
		c0-2.912-1.404-4.056-7.332-5.46c-5.513-1.3-9.621-2.756-9.621-7.541c0-4.472,4.056-7.176,9.152-7.176
		c6.188,0,8.944,3.276,9.568,7.645h-2.496c-0.364-3.433-3.016-5.408-7.072-5.408c-4.368,0-6.604,2.08-6.604,4.888
		c0,3.12,2.496,4.004,8.008,5.305c5.408,1.248,8.944,2.704,8.944,7.8c0,4.368-3.484,7.904-9.776,7.904
		C46.02,305.176,42.692,301.016,42.432,296.388z"/>
	<path d="M66.664,277.615h2.548v5.148h0.104c1.82-3.432,4.889-5.72,9.413-5.72c6.24,0,10.869,5.044,10.869,13.988
		c0,8.009-4.16,14.041-11.077,14.041c-4.472,0-7.28-1.924-9.205-4.992h-0.104v13.052h-2.548V277.615z M86.996,291.083
		c0-7.176-3.12-11.856-8.632-11.856c-5.98,0-9.413,5.148-9.413,11.96c0,7.124,3.38,11.752,9.464,11.752
		C84.188,302.939,86.996,297.479,86.996,291.083z"/>
	<path d="M93.651,267.318H96.2V304.5h-2.548L93.651,267.318L93.651,267.318z"/>
	<path d="M118.612,301.275v-0.937h-0.156c-1.508,2.134-4.212,4.836-9.725,4.836c-4.94,0-8.58-2.548-8.58-7.488
		c0-6.396,4.992-7.696,10.608-8.268c6.344-0.624,7.8-0.936,7.8-3.432v-0.936c0-4.056-2.392-5.824-6.76-5.824
		c-5.044,0-7.749,2.08-8.112,6.032h-2.601c0.521-5.2,4.004-8.216,10.713-8.216c5.98,0,9.308,2.652,9.308,8.164v15.811
		c0,1.454,0.78,1.87,1.716,1.87c0.364,0,0.78-0.104,1.248-0.26h0.156v1.872c-0.416,0.208-1.04,0.416-2.08,0.416
		C120.068,304.916,118.612,303.771,118.612,301.275z M118.56,294.932v-4.992c-1.872,0.936-4.732,1.3-7.488,1.612
		c-4.732,0.521-8.32,1.145-8.32,6.24c0,3.796,2.809,5.252,6.24,5.252C115.076,303.044,118.56,298.988,118.56,294.932z"/>
	<path d="M126.203,313.08v-2.288h0.104c0.416,0.104,0.988,0.26,2.132,0.26c2.236,0,3.848-1.04,4.836-3.899l0.78-2.235
		l-10.296-27.301h2.652l6.552,17.784c0.988,2.652,2.34,6.708,2.34,6.708h0.104c0,0,1.248-4.003,2.184-6.708l6.24-17.784h2.6
		l-10.816,30.108c-1.56,4.367-3.744,5.668-7.384,5.668C127.295,313.393,126.775,313.236,126.203,313.08z"/>
	<path d="M158.494,267.318h24.649v2.393h-21.945v14.456h20.177v2.34h-20.177v15.497h22.465v2.496h-25.169V267.318L158.494,267.318z"
		/>
	<path d="M196.038,290.199l-8.997-12.584h3.017l7.436,10.764h0.104l7.229-10.764h2.964l-8.632,12.532l10.14,14.353h-3.016
		l-8.633-12.532h-0.104l-8.581,12.532h-2.964L196.038,290.199z"/>
	<path d="M209.973,277.615h4.16v-8.112h2.548v8.112h4.888v2.132h-4.888v20.177c0,1.977,0.78,2.6,2.548,2.6
		c0.676,0,1.56-0.207,2.028-0.467h0.156v2.186c-0.832,0.312-1.612,0.468-2.704,0.468c-2.756,0-4.576-1.403-4.576-4.576v-20.385
		h-4.16V277.615L209.973,277.615z"/>
	<path d="M228.225,282.919h0.104c0.936-1.872,2.184-3.328,3.796-4.264c1.612-0.938,2.964-1.196,4.94-1.196v2.548
		c-1.508-0.052-2.704,0.156-3.796,0.624c-2.86,1.3-5.044,4.368-5.044,8.32V304.5h-2.548v-26.885h2.548V282.919z"/>
	<path d="M255.993,301.275v-0.937h-0.156c-1.508,2.134-4.212,4.836-9.725,4.836c-4.94,0-8.58-2.548-8.58-7.488
		c0-6.396,4.992-7.696,10.608-8.268c6.344-0.624,7.8-0.936,7.8-3.432v-0.936c0-4.056-2.392-5.824-6.76-5.824
		c-5.044,0-7.749,2.08-8.112,6.032h-2.601c0.521-5.2,4.004-8.216,10.713-8.216c5.98,0,9.308,2.652,9.308,8.164v15.811
		c0,1.454,0.78,1.87,1.716,1.87c0.364,0,0.78-0.104,1.248-0.26h0.155v1.872c-0.416,0.208-1.041,0.416-2.082,0.416
		C257.449,304.916,255.993,303.771,255.993,301.275z M255.94,294.932v-4.992c-1.872,0.936-4.732,1.3-7.488,1.612
		c-4.732,0.521-8.32,1.145-8.32,6.24c0,3.796,2.809,5.252,6.24,5.252C252.457,303.044,255.94,298.988,255.94,294.932z"/>
	<path d="M273.516,267.318h2.703v34.686h20.021v2.496h-22.725V267.318L273.516,267.318z"/>
	<path d="M300.294,267.318h2.548v4.16h-2.548V267.318z M300.294,277.615h2.548V304.5h-2.548V277.615z"/>
	<path d="M308.251,307.464h2.548c0.729,3.226,3.9,4.576,7.696,4.576c6.239,0,8.841-3.483,8.841-8.269v-4.577h-0.156
		c-1.977,3.329-4.681,5.044-8.893,5.044c-7.176,0-11.389-5.46-11.389-13.469c0-8.944,5.305-13.729,11.545-13.729
		c4.314,0,6.968,2.08,8.735,5.2h0.155v-4.628h2.548v26.104c0,3.068-0.938,5.564-2.651,7.387c-2.027,2.026-4.783,3.119-8.632,3.119
		C312.203,314.225,308.667,311.104,308.251,307.464z M327.543,290.823c0-6.656-3.016-11.596-8.996-11.596
		c-5.512,0-9.048,4.576-9.048,11.596c0,6.345,2.808,11.284,8.892,11.284C324.215,302.107,327.543,297.792,327.543,290.823z"/>
	<path d="M337.891,282.139h0.104c1.769-2.86,4.784-5.044,9.36-5.044c4.575,0,8.217,2.86,8.217,8.217V304.5h-2.549v-18.929
		c0-4.42-2.394-6.292-6.138-6.292c-4.783,0-8.996,3.38-8.996,7.852V304.5h-2.548v-37.182h2.548L337.891,282.139L337.891,282.139z"/>
	<path d="M358.17,277.615h4.16v-8.112h2.549v8.112h4.889v2.132h-4.889v20.177c0,1.977,0.779,2.6,2.549,2.6
		c0.677,0,1.56-0.207,2.027-0.467h0.156v2.186c-0.832,0.312-1.612,0.468-2.705,0.468c-2.756,0-4.576-1.403-4.576-4.576v-20.385
		h-4.16V277.615L358.17,277.615z"/>
	<path d="M380.373,295.712c0-6.345,4.629-9.152,10.609-11.909c-2.187-3.328-3.175-5.408-3.175-8.06c0-4.368,3.276-7.904,7.957-7.904
		c4.058,0,6.97,2.496,6.97,6.864c0,5.356-4.42,8.008-8.32,9.932l7.021,11.909c1.302-2.185,2.235-5.044,2.966-8.736h2.494
		c-0.729,4.628-2.132,8.216-4.158,11.024l3.432,5.668h-2.912l-2.234-3.641c-2.495,2.652-6.291,4.315-10.089,4.315
		C385.418,305.176,380.373,302.316,380.373,295.712z M390.982,302.889c3.273,0,6.812-1.717,8.84-4.108l-7.801-13.104
		c-4.16,1.924-8.841,4.264-8.841,10.037C383.182,300.392,386.51,302.889,390.982,302.889z M390.462,275.691
		c0,2.028,0.832,3.9,2.86,7.072c3.066-1.56,6.76-3.536,6.76-8.008c0-2.652-1.664-4.68-4.473-4.68
		C392.49,270.075,390.462,272.363,390.462,275.691z"/>
	<path d="M424.938,267.318h2.651l-7.177,37.182h-2.651L424.938,267.318z"/>
	<path d="M429.721,277.615h4.059l1.56-8.112h2.548l-1.56,8.112h4.784l-0.416,2.08h-4.784l-3.851,19.969
		c-0.361,1.977,0.156,2.912,1.926,2.912c0.778,0,1.717-0.156,2.234-0.364h0.156l-0.416,2.132c-0.52,0.208-1.456,0.364-2.288,0.364
		c-3.482,0-4.784-1.976-4.106-5.356l3.797-19.656h-4.059L429.721,277.615z"/>
	<path d="M457.333,300.964h-0.155c-1.248,1.872-3.744,4.212-8.633,4.212c-4.522,0-8.58-2.652-8.58-7.384
		c0-4.784,2.964-7.801,8.32-8.477c4.521-0.572,8.008-0.312,9.984-1.144c1.454-0.624,2.078-1.768,2.078-3.952
		c0-3.692-2.965-5.044-6.604-5.044c-4.576,0-7.384,1.977-8.271,6.084h-2.548c0.988-5.096,4.89-8.216,10.868-8.216
		c5.616,0,10.143,2.496,8.687,9.828l-2.704,13.625c-0.416,2.184,0.676,2.809,2.6,2.34h0.156l-0.312,1.768
		c-0.416,0.209-0.884,0.312-1.664,0.312C457.749,304.916,456.969,302.889,457.333,300.964z M448.805,303.096
		c5.931,0,8.789-4.056,9.568-8.008l1.04-5.252c-3.12,1.248-7.28,0.936-11.024,1.56c-4.366,0.728-5.876,2.808-5.822,6.396
		C442.617,301.068,445.165,303.096,448.805,303.096z"/>
	<path d="M472.308,267.318h2.496l-7.177,37.182h-2.496L472.308,267.318z"/>
	<path d="M478.131,277.615h2.496l-5.199,26.885h-2.496L478.131,277.615z M480.107,267.318h2.496l-0.78,4.108h-2.496L480.107,267.318
		z"/>
	<path d="M481.928,293.892c0-8.008,4.315-16.849,13.469-16.849c5.147,0,8.478,3.224,9.05,8.32h-2.395
		c-0.312-2.912-2.08-6.188-6.708-6.188c-7.645,0-10.868,7.853-10.868,14.665c0,5.356,2.288,9.152,7.854,9.152
		c4.313-0.053,7.488-3.172,8.632-7.593h2.444c-1.456,5.772-5.461,9.776-11.129,9.776
		C486.14,305.176,481.928,301.432,481.928,293.892z"/>
	<path d="M3.38,319.318h13.312c10.765,0,15.341,8.425,15.341,18.771c0,10.4-4.94,18.409-15.705,18.409H3.38V319.318z
		 M16.276,355.044c8.997,0,14.041-6.448,14.041-16.953s-4.681-17.265-13.677-17.265H4.992v34.217L16.276,355.044L16.276,355.044z"/>
	<path d="M38.324,323.062h-1.56v-3.484h1.56V323.062z M38.324,356.5h-1.56v-26.885h1.56V356.5z"/>
	<path d="M43.731,348.23c0.416,4.731,3.588,7.438,9.309,7.438c5.356,0,8.424-2.443,8.424-6.188c0-3.642-2.028-5.201-8.632-6.396
		c-6.5-1.145-9.621-2.964-9.621-7.125c0-4.004,3.276-6.812,9.048-6.812c6.396,0,9.048,3.328,9.725,7.75h-1.561
		c-0.572-3.851-3.016-6.347-8.164-6.347c-5.252,0-7.488,2.341-7.488,5.408c0,3.12,2.236,4.628,8.58,5.722
		c6.553,1.145,9.673,2.963,9.673,7.801c0,4.627-3.9,7.539-9.984,7.539c-7.072,0-10.557-3.742-10.869-8.787L43.731,348.23
		L43.731,348.23z"/>
	<path d="M66.975,329.615h1.56v6.916h0.052c1.716-4.836,5.616-7.385,10.296-7.385c6.084,0,11.232,4.681,11.232,13.885
		c0,8.217-4.628,13.937-11.389,13.937c-4.992,0-8.58-2.756-10.14-6.916h-0.052v15.081h-1.56L66.975,329.615L66.975,329.615z
		 M88.503,343.083c0-8.269-4.264-12.533-9.88-12.533c-6.137,0-10.192,5.148-10.192,12.638c0,7.593,4.004,12.43,10.244,12.43
		C84.603,355.616,88.503,350.416,88.503,343.083z"/>
	<path d="M95.886,356.5h-1.56v-37.182h1.56V356.5z"/>
	<path d="M118.923,353.12v-1.82h-0.104c-1.3,3.017-4.836,5.72-10.192,5.72c-5.096,0-8.58-2.703-8.58-7.278
		c0-5.876,4.784-7.229,10.4-7.904c6.604-0.728,8.477-1.3,8.477-4.16v-0.415c0-4.421-2.496-6.709-7.488-6.709
		c-5.252,0-8.217,2.133-8.581,6.812h-1.612c0.364-4.784,3.328-8.217,10.192-8.217c5.98,0,9.048,2.859,9.048,8.166v15.65
		c0,1.977,0.78,2.549,1.977,2.549c0.52,0,1.04-0.209,1.404-0.363h0.156v1.248c-0.364,0.207-1.04,0.414-1.872,0.414
		C119.807,356.812,118.923,355.305,118.923,353.12z M118.923,346.88v-6.032c-1.3,1.041-3.433,1.717-8.165,2.288
		c-5.616,0.677-9.152,1.769-9.152,6.656c0,4.315,3.64,5.876,7.125,5.876C114.763,355.668,118.923,351.872,118.923,346.88z"/>
	<path d="M134.21,359.256c-1.924,4.939-3.536,6.032-6.76,6.032c-1.092,0-1.768-0.156-2.34-0.364v-1.456h0.052
		c0.52,0.208,1.3,0.364,2.34,0.364c2.34,0,3.588-0.779,5.252-5.044l1.04-2.651l-10.556-26.521h1.664l9.672,24.492h0.052
		l9.308-24.492h1.664L134.21,359.256z"/>
	<path d="M168.686,356.5v-35.673h-13.261v-1.509h28.185v1.509h-13.26V356.5H168.686z"/>
	<path d="M188.548,334.451h0.104c1.56-2.704,4.576-5.252,9.672-5.252c5.356,0,8.425,3.275,8.425,8.06V356.5h-1.612v-19.085
		c0-4.576-2.704-6.812-7.072-6.812c-5.46,0-9.517,3.797-9.517,7.853V356.5h-1.56v-37.182h1.56V334.451z"/>
	<path d="M213.664,323.062h-1.56v-3.484h1.56V323.062z M213.664,356.5h-1.56v-26.885h1.56V356.5z"/>
	<path d="M220.787,334.451h0.104c1.561-2.704,4.576-5.252,9.673-5.252c5.304,0,8.372,3.275,8.372,8.06V356.5h-1.56v-19.085
		c0-4.576-2.704-6.812-7.072-6.812c-5.512,0-9.516,3.797-9.516,7.853V356.5h-1.561v-26.885h1.561L220.787,334.451L220.787,334.451z"
		/>
	<path d="M274.398,356.5l-2.912-4.576c-2.651,3.068-6.5,5.148-10.713,5.148c-5.355,0-10.036-3.227-10.036-9.311
		c0-5.72,4.056-8.787,10.92-11.906c-1.872-2.912-3.224-5.356-3.224-8.32c0-4.108,2.964-7.749,7.541-7.749
		c4.107,0,6.707,2.651,6.707,6.604c0,4.627-3.64,7.541-8.892,9.983l7.956,12.896c1.768-2.651,2.964-5.929,3.482-9.412h1.562
		c-0.521,4.057-2.028,7.748-4.265,10.815l3.641,5.824h-1.768V356.5L274.398,356.5z M270.707,350.624l-8.373-13.625
		c-5.72,2.651-9.932,5.356-9.932,10.765c0,4.992,3.744,7.854,8.372,7.854C264.727,355.616,268.367,353.536,270.707,350.624z
		 M263.114,335.23c4.784-2.235,7.903-4.783,7.903-8.789c0-2.965-1.818-5.252-5.097-5.252c-3.641,0-5.876,2.859-5.876,6.293
		C260.046,330.135,261.295,332.423,263.114,335.23z"/>
	<path d="M289.945,356.5h-1.612l7.177-37.182h1.611L289.945,356.5z"/>
	<path d="M299.668,329.615h3.797l1.611-8.32h1.561l-1.611,8.32h5.824l-0.312,1.352h-5.722l-4.004,20.594
		c-0.469,2.496,0.261,3.743,2.601,3.743c1.093,0,2.026-0.208,2.652-0.468h0.104l-0.261,1.352c-0.571,0.262-1.561,0.469-2.703,0.469
		c-3.328,0-4.576-1.978-3.953-5.147l3.953-20.541h-3.797L299.668,329.615z"/>
	<path d="M329.102,340.327c1.509-0.78,2.027-2.028,2.027-4.265c0-3.691-2.6-5.563-7.229-5.563c-5.668,0-8.373,2.756-9.205,6.655
		h-1.561c0.884-4.523,4.316-8.008,10.816-8.008c5.979,0,9.775,2.859,8.478,9.359l-2.86,13.989c-0.363,1.976,0.104,2.964,1.509,2.964
		c0.364,0,0.78-0.104,1.04-0.156h0.104l-0.26,1.146c-0.26,0.156-0.676,0.26-1.248,0.26c-2.34,0-3.12-1.768-2.652-4.004l0.156-0.885
		c-1.56,2.705-4.628,5.201-9.619,5.201c-4.784,0-8.478-2.81-8.478-7.438c0-4.682,2.912-7.488,9.62-7.957
		C324.266,341.264,327.333,341.159,329.102,340.327z M329.152,347.141l1.301-6.345c-1.872,1.456-5.148,1.664-10.66,2.132
		c-6.084,0.521-8.111,2.756-8.111,6.656c0.052,3.691,2.809,6.084,7.021,6.084C324.629,355.668,328.27,351.664,329.152,347.141z"/>
	<path d="M336.641,356.5h-1.561l7.177-37.182h1.561L336.641,356.5z"/>
	<path d="M343.764,356.5h-1.56l5.2-26.885h1.56L343.764,356.5z M350.264,323.011h-1.56l0.676-3.432h1.509L350.264,323.011z"/>
	<path d="M371.844,337.623c-0.468-3.691-2.912-7.124-7.955-7.124c-7.903,0-12.014,7.853-12.014,15.185
		c0,6.188,3.225,9.935,8.996,9.935c4.731,0,8.373-3.276,9.777-8.165h1.508c-1.508,5.72-5.722,9.566-11.338,9.566
		c-6.239,0-10.504-3.848-10.504-11.336c0-8.111,4.784-16.535,13.571-16.535c5.564,0,8.842,3.588,9.412,8.476L371.844,337.623
		L371.844,337.623z"/>
	<path d="M3.484,371.318h13.572c10.765,0,15.185,8.893,15.185,18.771c0,10.037-4.836,18.409-15.549,18.409H3.484V371.318z
		 M16.745,407.824c8.997,0,14.716-6.656,14.716-17.733c0-10.972-5.356-18.044-14.353-18.044H4.212v35.777H16.745z"/>
	<path d="M37.959,374.699h-0.78v-2.912h0.78V374.699z M37.959,408.5h-0.78v-26.885h0.78V408.5z"/>
	<path d="M42.743,400.128c0.416,4.94,3.588,8.06,10.349,8.06c6.032,0,9.36-2.548,9.36-6.5c0-4.264-2.548-6.136-9.672-7.123
		c-7.333-1.039-9.672-3.172-9.672-6.812s2.704-6.5,8.996-6.5c6.553,0,9.152,3.328,9.881,7.8h-0.78
		c-0.728-4.16-3.016-7.07-9.101-7.07c-5.928,0-8.216,2.547-8.216,5.771c0,3.172,2.08,5.2,9.048,6.138
		c7.541,1.039,10.245,3.119,10.245,7.801c0,4.782-4.16,7.229-10.088,7.229c-7.176,0-10.712-3.432-11.128-8.788h0.778V400.128z"/>
	<path d="M67.235,381.615h0.78v8.318h0.052c1.56-5.929,6.188-8.685,10.972-8.685c5.98,0,11.493,4.368,11.493,13.78
		c0,8.425-4.94,13.885-11.597,13.885c-5.408,0-9.672-3.432-10.868-8.477h-0.052v16.691h-0.78V381.615z M89.752,395.083
		c0-9.151-5.148-13.104-10.92-13.104c-6.24,0-10.816,5.201-10.816,13.209c0,7.955,4.576,13,10.869,13
		C84.968,408.188,89.752,403.196,89.752,395.083z"/>
	<path d="M95.679,408.5h-0.78v-37.182h0.78V408.5z"/>
	<path d="M119.235,404.964v-2.496h-0.104c-1.092,3.744-5.304,6.448-10.556,6.448c-5.2,0-8.632-2.808-8.632-7.124
		c0-5.46,4.628-6.864,10.296-7.593c6.812-0.885,8.997-1.664,8.997-4.784c0-4.681-2.548-7.437-8.061-7.437
		c-5.46,0-8.58,2.235-8.996,7.437h-0.78c0.26-4.368,2.756-8.164,9.776-8.164c5.928,0,8.84,2.964,8.84,8.164v15.497
		c0,2.444,0.728,3.068,2.132,3.068c0.728,0,1.248-0.208,1.612-0.416h0.104v0.728c-0.312,0.208-0.988,0.416-1.716,0.416
		C119.599,408.708,119.235,406.888,119.235,404.964z M119.235,398.828v-6.917c-0.832,1.196-2.393,2.132-8.685,2.912
		c-6.344,0.778-9.828,2.288-9.828,6.969c0,4.732,4.264,6.396,7.852,6.396C114.555,408.188,119.235,404.6,119.235,398.828z"/>
	<path d="M133.171,410.84c-2.185,5.46-3.276,6.396-6.24,6.396c-1.145,0-2.028-0.208-2.601-0.416v-0.78h0.052
		c0.624,0.26,1.56,0.468,2.548,0.468c2.34,0,3.328-0.572,5.512-5.979l1.248-3.068l-10.764-25.845h0.884l10.296,24.805l10.089-24.805
		h0.832L133.171,410.84z"/>
	<path d="M156.83,371.318v24.908c0,8.735,5.616,12.014,12.636,12.014c6.864,0,12.637-3.276,12.637-12.014v-24.908h0.78v24.908
		c0,9.257-6.188,12.739-13.417,12.739c-7.384,0-13.416-3.482-13.416-12.739v-24.908H156.83z"/>
	<path d="M189.537,408.5h-0.78v-37.182h0.78V408.5z"/>
	<path d="M193.697,381.615h3.64v-8.479h0.78v8.479h6.708v0.728h-6.708v22.153c0,2.34,0.988,3.588,3.848,3.588
		c0.937,0,1.977-0.104,2.809-0.364h0.052v0.729c-0.676,0.208-1.976,0.362-2.86,0.362c-3.328,0-4.628-1.402-4.628-4.314v-22.153
		h-3.64L193.697,381.615L193.697,381.615z"/>
	<path d="M221.102,382.343c-0.624-0.208-1.404-0.312-2.34-0.312c-5.356,0-8.789,4.992-8.789,8.58V408.5h-0.78v-26.885h0.78v5.615
		h0.104c1.82-3.85,5.096-5.93,8.736-5.93c0.832,0,1.976,0.156,2.288,0.312L221.102,382.343L221.102,382.343z"/>
	<path d="M241.277,404.964v-2.496h-0.104c-1.092,3.744-5.304,6.448-10.556,6.448c-5.2,0-8.632-2.808-8.632-7.124
		c0-5.46,4.628-6.864,10.296-7.593c6.812-0.885,8.997-1.664,8.997-4.784c0-4.681-2.548-7.437-8.061-7.437
		c-5.46,0-8.58,2.235-8.996,7.437h-0.78c0.26-4.368,2.756-8.164,9.776-8.164c5.928,0,8.84,2.964,8.84,8.164v15.497
		c0,2.444,0.728,3.068,2.132,3.068c0.728,0,1.248-0.208,1.612-0.416h0.104v0.728c-0.312,0.208-0.988,0.416-1.716,0.416
		C241.641,408.708,241.277,406.888,241.277,404.964z M241.277,398.828v-6.917c-0.832,1.196-2.393,2.132-8.685,2.912
		c-6.344,0.778-9.828,2.288-9.828,6.969c0,4.732,4.264,6.396,7.852,6.396C236.597,408.188,241.277,404.6,241.277,398.828z"/>
	<path d="M269.148,408.5v-36.453h-13.78v-0.729h28.341v0.729H269.93V408.5H269.148z"/>
	<path d="M287.973,386.711h0.104c1.353-2.548,4.368-5.408,9.881-5.408c5.979,0,8.58,3.588,8.58,7.957v19.24h-0.78v-19.188
		c0-4.732-2.964-7.28-7.854-7.28c-6.031,0-9.932,4.159-9.932,7.903V408.5h-0.779v-37.182h0.779V386.711L287.973,386.711z"/>
	<path d="M312.879,374.699H312.1v-2.912h0.779V374.699z M312.879,408.5H312.1v-26.885h0.779V408.5z"/>
	<path d="M319.379,386.711h0.104c1.354-2.548,4.368-5.408,9.881-5.408c5.979,0,8.58,3.588,8.58,7.957v19.24h-0.779v-19.188
		c0-4.732-2.964-7.28-7.854-7.28c-6.084,0-9.933,4.159-9.933,7.903V408.5H318.6v-26.885h0.779V386.711z"/>
	<path d="M373.616,408.5l-3.434-5.356c-2.809,3.435-6.655,5.824-11.231,5.824c-5.252,0-9.62-3.536-9.62-9.204
		c0-5.199,3.588-8.477,11.181-11.854c-1.61-2.548-3.274-5.304-3.274-8.58c0-3.899,2.703-7.593,7.229-7.593
		c4.108,0,6.448,2.756,6.448,6.447c0,3.951-2.965,7.125-9.311,9.983l8.687,13.677c2.184-3.016,3.588-6.654,3.952-9.933h0.777
		c-0.361,3.536-1.924,7.385-4.313,10.607l3.796,5.979L373.616,408.5L373.616,408.5z M369.768,402.468l-8.84-13.987
		c-7.071,3.172-10.815,6.188-10.815,11.283c0,5.252,4.005,8.479,8.841,8.479C363.424,408.24,367.115,405.848,369.768,402.468z
		 M361.239,387.596c6.188-2.809,8.893-5.824,8.893-9.414c0-3.224-2.028-5.72-5.668-5.72c-4.005,0-6.448,3.38-6.448,6.864
		C358.016,382.499,359.575,385.1,361.239,387.596z"/>
	<path d="M387.029,408.5h-0.779l7.229-37.182h0.78L387.029,408.5z"/>
	<path d="M397.119,381.615h3.588l1.664-8.479h0.78l-1.664,8.479h6.604l-0.156,0.728h-6.553l-4.105,21.113
		c-0.572,2.912,0.312,4.42,3.117,4.42c1.354,0,2.289-0.26,3.068-0.572h0.053l-0.154,0.729c-0.624,0.312-1.664,0.572-3.019,0.572
		c-3.274,0-4.472-1.978-3.897-4.94l4.158-21.321h-3.641L397.119,381.615z"/>
	<path d="M429.307,387.959c0-3.691-2.34-5.98-7.748-5.98c-6.553,0-9.15,3.328-9.982,7.072h-0.729c0.78-4.056,3.851-7.8,10.713-7.8
		c6.292,0,9.518,3.172,8.32,8.996l-2.912,14.249c-0.469,2.184-0.104,3.328,1.456,3.328c0.416,0,0.832-0.104,0.987-0.156h0.053
		l-0.156,0.676c-0.154,0.054-0.57,0.156-0.986,0.156c-1.925,0-2.704-1.508-2.132-4.004l0.362-1.612
		c-1.818,3.38-5.354,5.98-10.398,5.98c-4.94,0-8.425-2.912-8.425-7.438c0-4.576,2.91-7.279,10.713-7.592
		C427.486,393.473,429.307,392.379,429.307,387.959z M427.33,399.191l1.457-7.229c-1.248,1.562-3.797,2.236-10.297,2.548
		c-7.488,0.364-9.984,2.756-9.984,6.916c0,4.004,2.964,6.708,7.646,6.708C422.026,408.136,426.343,404.184,427.33,399.191z"/>
	<path d="M433.309,408.5h-0.777l7.229-37.182h0.779L433.309,408.5z"/>
	<path d="M439.913,408.5h-0.78l5.2-26.885h0.78L439.913,408.5z M446.465,374.699h-0.779l0.571-2.912h0.78L446.465,374.699z"/>
	<path d="M469.138,389.831c-0.57-4.368-3.536-7.853-8.942-7.853c-8.062,0-12.949,7.801-12.949,15.549
		c0,6.917,4.005,10.606,9.933,10.606c5.099,0,9.152-3.38,10.767-8.632h0.729c-1.61,5.668-5.979,9.36-11.493,9.36
		c-6.396,0-10.712-3.9-10.712-11.337c0-8.164,5.252-16.276,13.729-16.276c5.876,0,9.1,3.899,9.672,8.58L469.138,389.831
		L469.138,389.831z"/>
	<path d="M1.404,445.811h31.929v7.54H21.789V484.5h-8.893v-31.149H1.404V445.811z"/>
	<path d="M29.9,470.72c0-8.318,5.772-14.665,14.196-14.665c3.952,0,7.072,1.302,9.517,3.536c3.12,3.019,4.524,7.696,4.472,13.157
		H37.908c0.521,4.16,2.756,6.656,6.708,6.656c2.548,0,4.16-0.988,5.044-2.704h7.904c-1.404,4.888-5.929,8.632-13.053,8.632
		C35.464,485.332,29.9,478.988,29.9,470.72z M37.96,468.016h11.804c-0.26-3.849-2.444-6.188-5.668-6.188
		C40.353,461.827,38.48,464.219,37.96,468.016z"/>
	<path d="M68.277,469.991l-8.789-13.156h9.309l1.612,2.6c1.352,2.288,2.912,5.876,2.912,5.876h0.104c0,0,1.561-3.588,2.809-5.876
		l1.508-2.6h8.632l-8.476,13l9.724,14.665h-9.464l-2.132-3.536c-1.3-2.34-3.017-6.136-3.017-6.136h-0.104
		c0,0-1.769,3.796-3.225,6.136l-2.236,3.536h-8.892L68.277,469.991z"/>
	<path d="M88.815,456.835h4.16v-8.84h8.009v8.84h5.408v5.2h-5.408v13.729c0,2.08,1.144,2.652,3.068,2.652
		c0.52,0,1.352-0.052,1.872-0.104h0.416v6.084c-0.884,0.154-2.548,0.416-4.732,0.416c-5.148,0-8.633-1.664-8.633-7.28v-15.497h-4.16
		V456.835z"/>
	<path d="M123.76,445.811h18.305c4.004,0,7.072,0.938,9.048,2.652c2.132,1.872,3.276,4.316,3.276,7.384
		c0,3.851-2.08,6.448-6.24,7.749v0.208c4.992,1.196,7.748,4.682,7.748,9.413c0,3.692-1.352,6.5-3.796,8.424
		c-2.288,1.872-5.46,2.86-9.568,2.86H123.76V445.811z M140.816,461.359c3.016,0,5.044-1.456,5.044-4.316
		c0-2.808-1.924-4.368-4.94-4.368h-8.372v8.687L140.816,461.359L140.816,461.359z M141.596,477.532c1.768,0,3.172-0.521,4.108-1.404
		c0.884-0.832,1.404-2.08,1.404-3.536c0-3.38-2.444-5.044-5.668-5.044h-8.893v9.984H141.596z"/>
	<path d="M159.326,470.72c0-8.318,5.824-14.665,14.665-14.665c8.788,0,14.561,6.347,14.561,14.665
		c0,8.27-5.772,14.664-14.561,14.664C165.15,485.384,159.326,478.988,159.326,470.72z M180.283,470.72
		c0-5.252-2.288-8.841-6.344-8.841c-4.16,0-6.344,3.588-6.344,8.841c0,5.2,2.184,8.736,6.344,8.736
		C177.995,479.456,180.283,475.92,180.283,470.72z"/>
	<path d="M192.763,445.811h8.216V484.5h-8.216V445.811z"/>
	<path d="M205.139,470.667c0-8.476,4.784-14.613,11.96-14.613c3.796,0,6.345,1.771,8.217,4.628h0.104
		c-0.104-1.716-0.208-4.056-0.208-6.396v-8.479h8.165V484.5h-7.852v-4.056h-0.104c-1.612,3.38-4.68,4.938-8.424,4.938
		C209.818,485.384,205.139,479.82,205.139,470.667z M225.471,470.667c0-4.888-2.028-8.424-6.24-8.424
		c-3.848,0-5.772,3.432-5.772,8.372c0,4.992,1.924,8.217,5.72,8.217C223.131,478.832,225.471,475.504,225.471,470.667z"/>
	<path d="M249.494,474.672c0-6.5,4.316-10.297,10.712-12.688c-1.144-1.718-1.82-3.851-1.82-6.448
		c0-5.668,4.265-10.037,11.285-10.037c5.668,0,9.776,3.068,9.776,8.32c0,4.938-4.004,8.318-9.049,10.19l1.561,2.444
		c0.832,1.404,2.08,3.692,2.859,5.097c1.093-2.026,1.873-4.314,2.341-6.345h6.916c-0.937,4.473-2.652,8.581-5.253,11.961
		l4.681,7.332h-9.151l-0.572-0.884c-0.26-0.416-0.521-0.78-0.729-1.196c-2.703,1.664-6.031,2.808-10.088,2.808
		C255.006,485.228,249.494,481.588,249.494,474.672z M269.566,477.22l-6.5-10.606c-3.276,1.664-4.992,4.314-4.992,7.176
		c0,3.328,2.496,5.096,5.876,5.096C266.135,478.884,267.902,478.26,269.566,477.22z M267.746,459.799
		c3.328-1.508,4.523-3.482,4.523-5.616c0-2.026-1.195-3.118-2.809-3.118c-2.186,0-3.588,1.662-3.588,4.057
		C265.875,456.887,266.551,458.447,267.746,459.799z"/>
	<path d="M305.395,445.811h8.735l-7.54,38.689h-8.736L305.395,445.811z"/>
	<path d="M316.105,456.835h4.004l1.716-8.84h7.853l-1.716,8.84h5.252l-0.987,5.096h-5.252l-2.651,13.886
		c-0.416,2.234,0.571,2.858,2.496,2.858c0.623,0,1.403-0.104,1.871-0.156h0.261l-1.039,5.824c-0.832,0.208-2.341,0.468-4.475,0.468
		c-5.043,0-8.217-2.548-7.122-8.268l2.808-14.613h-4.056L316.105,456.835z"/>
	<path d="M332.537,477.532c0-6.76,5.199-8.373,12.688-9.048c5.356-0.47,7.28-1.404,7.28-3.9c0-1.82-1.403-3.172-4.108-3.172
		c-2.808,0-4.729,1.404-5.252,3.796h-7.487c1.041-5.512,5.617-9.152,13.002-9.152c8.58,0,12.376,4.42,10.972,11.599l-2.08,10.712
		c-0.676,3.432-0.364,4.938,0.312,5.668l-0.051,0.468h-7.595c-0.416-0.884-0.676-1.976-0.676-3.38h-0.156
		c-1.871,2.496-4.628,4.106-8.269,4.106C335.917,485.228,332.537,482.212,332.537,477.532z M350.634,474.828l0.78-3.744
		c-1.977,1.092-3.641,1.248-6.293,1.768c-3.225,0.624-4.68,1.82-4.68,4.16s1.819,3.276,3.898,3.276
		C347.93,480.288,350.062,477.896,350.634,474.828z"/>
	<path d="M369.562,445.811h8.008l-7.54,38.689h-8.009L369.562,445.811z"/>
	<path d="M380.846,456.835h8.008l-5.407,27.665h-7.956L380.846,456.835z M382.977,445.811h8.113l-1.404,7.124h-8.11L382.977,445.811
		z"/>
	<path d="M389.996,473.008c0-9.673,6.24-16.953,15.549-16.953c7.488,0,11.544,4.475,12.012,10.245h-7.748
		c-0.312-2.548-1.664-4.314-4.472-4.314c-4.681,0-7.28,5.46-7.28,11.388c0,3.898,1.82,6.084,4.89,6.084
		c2.964,0,4.889-1.82,5.876-5.252h7.957c-1.612,7.488-6.709,11.23-13.887,11.23C395.195,485.436,389.996,480.704,389.996,473.008z"
		/>
	<path d="M1.508,497.811h31.409v6.188H20.801V536.5h-7.229v-32.501H1.508V497.811z"/>
	<path d="M30.004,522.668c0-8.269,5.564-14.665,13.781-14.665c4.056,0,7.228,1.404,9.568,3.9c2.704,2.858,4.004,7.228,3.952,12.376
		H36.557c0.468,4.783,3.016,8.009,7.644,8.009c3.172,0,5.252-1.354,6.136-3.643h6.448c-1.352,4.992-5.824,8.687-12.637,8.687
		C35.309,537.332,30.004,530.884,30.004,522.668z M36.66,520.119h13.833c-0.26-4.576-2.704-7.332-6.708-7.332
		C39.469,512.787,37.232,515.751,36.66,520.119z"/>
	<path d="M68.38,521.939l-8.997-13.208h7.593l2.756,4.366c1.144,1.872,2.6,4.94,2.6,4.94h0.104c0,0,1.508-3.12,2.6-4.94l2.808-4.366
		h7.072l-8.788,12.896L86.321,536.5h-7.645l-3.64-5.564c-1.196-1.976-2.808-5.252-2.808-5.252h-0.104c0,0-1.664,3.276-2.86,5.252
		l-3.692,5.564h-7.28L68.38,521.939z"/>
	<path d="M87.879,508.731h4.264v-8.842h6.5v8.842h5.564v4.522h-5.564v15.549c0,2.028,1.092,2.603,2.964,2.603
		c0.676,0,1.612-0.104,2.132-0.209h0.312v5.146c-1.092,0.208-2.6,0.416-4.368,0.416c-4.472,0-7.54-1.609-7.54-6.5v-17.005h-4.264
		V508.731z"/>
	<path d="M122.614,497.811h9.517l6.344,18.408c1.508,4.524,3.38,13.001,3.38,13.001h0.156c0,0,1.872-8.425,3.328-13.001l6.24-18.408
		h9.725V536.5h-6.708v-20.177c0-4.212,0.468-12.064,0.468-12.064h-0.104c0,0-1.612,7.124-2.86,10.975l-7.333,21.269h-5.824
		l-7.384-21.269c-1.248-3.851-2.86-10.975-2.86-10.975h-0.104c0,0,0.468,7.854,0.468,12.064V536.5h-6.448v-38.689H122.614z"/>
	<path d="M166.502,522.668c0-8.269,5.564-14.665,13.78-14.665c4.056,0,7.229,1.404,9.568,3.9c2.704,2.858,4.004,7.228,3.952,12.376
		h-20.749c0.468,4.783,3.017,8.009,7.646,8.009c3.172,0,5.252-1.354,6.136-3.643h6.448c-1.352,4.992-5.824,8.687-12.636,8.687
		C171.806,537.332,166.502,530.884,166.502,522.668z M173.158,520.119h13.832c-0.26-4.576-2.704-7.332-6.708-7.332
		C175.966,512.787,173.73,515.751,173.158,520.119z"/>
	<path d="M197.025,522.668c0-8.841,4.992-14.665,12.064-14.665c3.849,0,6.708,1.82,8.528,4.732h0.104
		c-0.104-1.51-0.208-3.692-0.208-5.772v-9.152h6.604V536.5h-6.396v-4.057h-0.104c-1.716,3.225-4.732,4.938-8.528,4.938
		C201.758,537.384,197.025,531.716,197.025,522.668z M217.774,522.668c0-5.564-2.444-9.517-7.332-9.517
		c-4.473,0-6.708,4.004-6.708,9.464c0,5.562,2.236,9.358,6.708,9.358C215.33,531.976,217.774,528.128,217.774,522.668z"/>
	<path d="M230.045,497.811h6.76v6.396h-6.76V497.811z M230.149,508.731h6.604V536.5h-6.604V508.731z"/>
	<path d="M260.621,536.5v-3.952h-0.104c-2.03,3.019-4.474,4.681-8.374,4.681c-6.084,0-9.621-3.797-9.621-9.775v-18.72h6.604v17.783
		c0,3.276,1.872,5.2,5.2,5.2c3.744,0,6.137-2.858,6.137-6.708v-16.275h6.554V536.5H260.621z"/>
	<path d="M273.047,508.731h6.396v4.212h0.156c1.768-3.12,4.522-4.94,8.318-4.94c3.482,0,6.139,1.77,7.387,5.2h0.104
		c2.184-3.588,5.305-5.2,8.736-5.2c5.667,0,8.995,3.692,8.995,9.673V536.5h-6.604v-17.94c0-3.172-1.82-5.097-4.524-5.097
		c-3.225,0-5.615,2.704-5.615,6.604V536.5h-6.604v-17.94c0-3.172-1.611-5.097-4.368-5.097c-3.067,0-5.771,2.704-5.771,6.604V536.5
		h-6.604L273.047,508.731L273.047,508.731z"/>
	<path d="M330.299,526.88c0-6.656,4.42-10.245,10.765-12.741l-0.104-0.208c-1.456-2.132-2.236-4.368-2.236-6.968
		c0-5.354,3.9-9.672,10.4-9.672c4.939,0,9.102,2.86,9.102,7.904c0.052,5.252-3.952,8.526-8.894,10.606l0.884,1.404l4.422,7.645
		c1.299-2.234,2.185-4.889,2.703-7.486h5.668c-0.832,4.576-2.548,8.788-5.147,12.221l4.368,6.916h-7.385l-1.194-1.924l-0.364-0.521
		c-2.704,1.927-6.084,3.173-10.192,3.173C335.863,537.229,330.299,533.744,330.299,526.88z M350.477,529.636l-7.021-11.597
		c-3.9,1.872-6.292,4.523-6.292,8.217c0,3.641,2.756,5.72,6.552,5.72C346.264,531.976,348.499,531.092,350.477,529.636z
		 M346.835,511.643l0.261,0.416c3.691-1.716,5.147-3.898,5.147-6.5c0-2.132-1.403-3.534-3.328-3.534
		c-2.601,0-4.056,2.026-4.056,4.574C344.859,508.419,345.587,510.135,346.835,511.643z"/>
	<path d="M385.73,497.811h7.125l-7.541,38.689h-7.125L385.73,497.811z"/>
	<path d="M395.611,508.731h4.16l1.716-8.842h6.396l-1.716,8.842h5.2l-0.884,4.42h-5.2l-3.018,15.548
		c-0.416,2.234,0.571,2.965,2.443,2.965c0.729,0,1.562-0.156,2.028-0.208h0.208l-0.885,4.888c-0.885,0.208-2.186,0.416-3.951,0.416
		c-4.475,0-7.333-2.441-6.346-7.384l3.119-16.225h-4.16L395.611,508.731z"/>
	<path d="M411.417,529.584c0-6.448,4.888-8.217,12.116-8.996c5.721-0.572,8.217-1.248,8.164-4.473
		c-0.054-2.132-1.664-3.642-4.836-3.642c-3.434,0-5.616,1.664-6.24,4.628h-6.136c0.936-5.354,5.354-9.101,12.53-9.101
		c7.696,0,11.648,3.952,10.299,10.973l-2.187,11.39c-0.728,3.641-0.312,5.045,0.312,5.669v0.468h-6.188
		c-0.364-0.676-0.676-1.664-0.676-3.276h-0.156c-1.872,2.444-4.629,3.952-8.269,3.952
		C414.85,537.176,411.417,534.264,411.417,529.584z M429.67,526.932l0.938-4.473c-1.82,1.041-3.744,1.404-6.812,1.925
		c-3.744,0.676-5.876,1.872-5.876,4.836c0,2.704,2.08,3.796,4.368,3.796C426.602,533.016,429.098,530.156,429.67,526.932z"/>
	<path d="M447.609,497.811h6.5l-7.54,38.689h-6.501L447.609,497.811z"/>
	<path d="M458.164,508.731h6.5l-5.408,27.769h-6.448L458.164,508.731z M460.244,497.811h6.656l-1.302,6.396h-6.604L460.244,497.811z
		"/>
	<path d="M466.328,525.319c0-9.673,6.136-17.316,15.443-17.316c7.332,0,11.023,4.472,11.338,9.984h-6.293
		c-0.156-2.964-1.82-5.044-5.355-5.044c-5.564,0-8.633,6.238-8.633,12.637c0,4.264,2.028,6.812,5.824,6.812
		c3.482,0,5.928-2.08,7.07-5.979h6.448c-1.716,7.228-6.761,10.972-13.572,10.972C471.061,537.384,466.328,532.6,466.328,525.319z"/>
	<path d="M1.612,549.811h30.785v4.682h-12.74v34.01h-5.356v-34.01H1.612V549.811z"/>
	<path d="M30.108,574.562c0-8.111,5.356-14.664,13.364-14.664c4.16,0,7.384,1.61,9.568,4.314c2.288,2.756,3.432,6.761,3.432,11.492
		H35.048c0.364,5.461,3.328,9.621,8.736,9.621c3.848,0,6.5-1.82,7.384-4.784H55.9c-1.248,5.2-5.721,8.736-12.169,8.736
		C35.152,589.28,30.108,582.729,30.108,574.562z M35.152,572.224h16.173c-0.26-5.354-3.017-8.581-7.853-8.581
		C38.429,563.643,35.776,567.283,35.152,572.224z"/>
	<path d="M68.537,573.888l-9.308-13.312h5.616l4.16,6.396c0.884,1.404,2.236,3.851,2.236,3.851h0.104c0,0,1.404-2.496,2.288-3.851
		l4.316-6.396h5.252L74.1,573.421l10.765,15.08h-5.616l-5.356-7.904c-1.04-1.508-2.548-4.212-2.548-4.212h-0.104
		c0,0-1.508,2.704-2.496,4.212L63.44,588.5h-5.408L68.537,573.888z"/>
	<path d="M86.478,560.575h4.368v-8.788h4.784v8.788h5.772v3.744H95.63v17.628c0,2.026,1.092,2.601,2.86,2.601
		c0.832,0,1.924-0.208,2.444-0.364h0.156v4.059c-1.3,0.312-2.652,0.468-3.9,0.468c-3.744-0.052-6.344-1.56-6.344-5.668V564.32
		h-4.368V560.575z"/>
	<path d="M120.952,549.811h18.097c6.917,0,11.597,4.266,11.597,10.66c0,4.732-1.924,8.062-7.072,9.673v0.155
		c4.368,1.301,5.616,3.9,5.98,9.465c0.468,6.084,0.988,7.956,1.768,8.479v0.26h-5.668c-0.884-0.729-0.988-2.496-1.404-8.685
		c-0.364-5.461-2.652-7.438-7.696-7.438h-10.296V588.5h-5.305L120.952,549.811L120.952,549.811z M126.257,568.115h11.076
		c5.252,0,7.853-2.652,7.853-6.864c0-4.524-2.132-6.864-7.593-6.864h-11.336V568.115z"/>
	<path d="M154.909,574.562c0-8.111,5.252-14.664,13.676-14.664s13.573,6.553,13.573,14.664c0,8.163-5.148,14.718-13.573,14.718
		S154.909,582.729,154.909,574.562z M177.218,574.562c0-6.031-2.964-10.815-8.685-10.815c-5.72,0-8.684,4.784-8.684,10.815
		s2.964,10.766,8.684,10.766C174.254,585.328,177.218,580.596,177.218,574.562z"/>
	<path d="M187.305,560.575h4.784v4.16h0.156c1.716-3.019,4.68-4.837,8.268-4.837c3.38,0,6.084,1.769,7.228,5.199h0.104
		c1.976-3.482,5.252-5.199,8.632-5.199c5.097,0,8.633,3.274,8.633,9.101V588.5h-4.836v-19.085c0-3.432-2.236-5.46-5.044-5.46
		c-3.536,0-6.604,3.068-6.604,7.332V588.5h-4.784v-19.085c0-3.432-1.924-5.46-4.784-5.46c-3.328,0-6.917,3.068-6.917,7.332V588.5
		h-4.836V560.575z"/>
	<path d="M230.464,581.115c0-6.5,4.784-7.904,12.013-8.788c4.108-0.468,6.76-1.146,6.76-4.004c0-3.019-2.132-4.89-5.98-4.89
		c-4.42,0-6.552,2.08-6.708,5.408h-4.68c0.208-4.73,3.796-8.943,11.336-8.943c2.652,0,4.992,0.469,6.761,1.509
		c2.34,1.401,3.744,3.848,3.744,7.592v13.053c0,2.236,0.52,3.433,2.964,2.912h0.208v3.38c-0.676,0.208-1.456,0.416-2.6,0.416
		c-2.964,0-4.42-1.404-4.94-4.368h-0.052c-1.768,2.444-4.628,4.683-9.36,4.683C234.624,589.072,230.464,586.472,230.464,581.115z
		 M249.289,578.203v-4.576c-1.404,0.885-3.848,1.561-6.136,1.977c-4.576,0.78-7.592,1.612-7.592,5.462
		c0,3.589,2.756,4.473,5.564,4.473C246.688,585.536,249.289,581.428,249.289,578.203z"/>
	<path d="M265.616,564.527h0.155c2.027-2.811,4.785-4.629,8.84-4.629c5.824,0,9.414,3.274,9.414,9.101V588.5h-4.785v-18.929
		c0-3.588-2.34-5.616-6.137-5.616c-4.315,0-7.438,3.068-7.438,7.54V588.5h-4.836v-27.925h4.783L265.616,564.527L265.616,564.527z"/>
	<path d="M302.535,579.088c0-6.864,4.522-10.141,10.765-12.896l-0.468-0.78c-1.611-2.603-2.393-4.732-2.393-7.072
		c0-4.992,3.534-9.257,9.465-9.257c4.106,0,8.268,2.549,8.319,7.437c0.052,5.515-4.004,8.687-8.842,10.975l0.156,0.26
		c0.104,0.208,4.368,7.385,6.292,10.505c1.456-2.442,2.549-5.408,3.12-8.735h4.212c-0.779,4.731-2.442,9.101-4.938,12.479l3.951,6.5
		h-5.408l-1.818-2.964c-2.757,2.288-6.24,3.744-10.296,3.744C308.15,589.28,302.535,585.9,302.535,579.088z M322.816,581.947
		l-7.595-12.584c-4.472,2.132-7.694,4.73-7.694,9.465c0,4.004,2.965,6.396,7.278,6.396
		C317.824,585.224,320.527,584.027,322.816,581.947z M316.939,563.383l0.625,1.04c4.211-2.028,6.03-4.368,6.03-7.54
		c0-2.34-1.664-4.004-3.899-4.004c-3.067,0-4.681,2.393-4.681,5.096C315.016,559.847,315.796,561.615,316.939,563.383z"/>
	<path d="M357.551,549.811h5.306l-7.541,38.689h-5.306L357.551,549.811z"/>
	<path d="M366.494,560.575h4.315l1.716-8.841h4.681l-1.716,8.841h5.199l-0.779,3.69h-5.148l-3.432,17.475
		c-0.416,2.233,0.52,3.016,2.34,3.016c0.832,0,1.771-0.156,2.236-0.26h0.155l-0.729,3.9c-0.938,0.153-1.976,0.26-3.328,0.26
		c-3.796,0-6.292-2.236-5.46-6.346l3.536-18.044h-4.315L366.494,560.575z"/>
	<path d="M381.208,581.844c0-6.344,4.474-8.269,11.493-9.101c6.084-0.676,9.204-1.092,9.1-5.147c-0.052-2.549-1.976-4.16-5.668-4.16
		c-4.16,0-6.656,1.978-7.385,5.514h-4.523c0.779-5.098,4.992-9.049,12.014-9.049c6.604,0,10.814,3.433,9.465,10.349l-2.34,12.221
		c-0.416,2.08,0.104,3.019,2.441,2.603h0.156l-0.624,3.273c-0.624,0.208-1.3,0.416-2.444,0.416c-2.441,0-4.056-1.248-4.158-3.796
		h-0.104c-1.82,2.548-4.889,4.108-8.477,4.108C384.641,589.072,381.208,586.264,381.208,581.844z M399.669,579.088l1.04-5.305
		c-1.612,0.988-3.848,1.561-7.438,2.08c-4.314,0.676-7.229,1.924-7.229,5.616c0,3.118,2.392,4.314,4.938,4.314
		C396.185,585.796,398.993,582.416,399.669,579.088z"/>
	<path d="M417.244,549.811h4.73l-7.541,38.689h-4.729L417.244,549.811z"/>
	<path d="M426.915,560.575h4.731l-5.46,27.925h-4.731L426.915,560.575z M428.892,549.811h4.94l-1.093,5.616h-4.94L428.892,549.811z"
		/>
	<path d="M433.832,577.632c0-9.673,6.031-17.731,15.34-17.731c7.177,0,10.453,4.473,10.608,9.775h-4.628
		c-0.054-3.482-2.08-5.929-6.396-5.929c-6.604,0-10.141,7.177-10.141,14.04c0,4.73,2.234,7.645,6.865,7.645
		c4.056,0,7.122-2.392,8.424-6.812h4.68c-1.768,6.917-6.76,10.661-13.156,10.661C438.044,589.28,433.832,584.496,433.832,577.632z"
		/>
</g>
</svg>
