<?xml version="1.0" encoding="UTF-8" standalone="no"?>
<svg xmlns:rdf="http://www.w3.org/1999/02/22-rdf-syntax-ns#" xmlns="http://www.w3.org/2000/svg" xml:space="preserve" height="480" viewBox="0 0 785.45453 480" width="785.455" version="1.1" xmlns:cc="http://creativecommons.org/ns#" xmlns:dc="http://purl.org/dc/elements/1.1/" enable-background="new">
<g><rect height="480" width="785.455" y="-3.64041E-7" x="0" fill="#74ced9"/><path stroke="#FFF" stroke-width="0.94343442" d="M378.586,71.3847a29.4823,29.4823,0,0,0,29.482,29.4823,29.4823,29.4823,0,0,0,29.482,-29.4823,29.4823,29.4823,0,0,0,-29.482,-29.4824,29.4823,29.4823,0,0,0,-29.482,29.4824h3.93098a25.5513,25.5513,0,0,1,25.5514,-25.5513,25.5513,25.5513,0,0,1,25.5514,25.5513,25.5513,25.5513,0,0,1,-25.5514,25.5513,25.5513,25.5513,0,0,1,-25.5514,-25.5513z" fill="#FFF"/><path stroke="#FFF" stroke-width="0.94343442" d="M411.016,98.9015a29.4823,29.4823,0,0,0,29.483,29.4825,29.4823,29.4823,0,0,0,29.482,-29.4825,29.4823,29.4823,0,0,0,-29.482,-29.4823,29.4823,29.4823,0,0,0,-29.483,29.4823h3.93098a25.5513,25.5513,0,0,1,25.552,-25.5513,25.5513,25.5513,0,0,1,25.551,25.5513,25.5513,25.5513,0,0,1,-25.551,25.5515,25.5513,25.5513,0,0,1,-25.552,-25.5515z" fill="#FFF"/><path stroke="#FFF" stroke-width="0.94343442" d="M443.447,71.3847a29.4823,29.4823,0,0,0,29.482,29.4823,29.4823,29.4823,0,0,0,29.483,-29.4823,29.4823,29.4823,0,0,0,-29.483,-29.4824,29.4823,29.4823,0,0,0,-29.482,29.4824h3.93098a25.5513,25.5513,0,0,1,25.5514,-25.5513,25.5513,25.5513,0,0,1,25.5514,25.5513,25.5513,25.5513,0,0,1,-25.5514,25.5513,25.5513,25.5513,0,0,1,-25.5514,-25.5513z" fill="#FFF"/><path stroke="#FFF" stroke-width="0.94343442" d="m475.877,98.9015a29.4823,29.4823,0,0,0,29.4823,29.4823,29.4823,29.4823,0,0,0,29.4823,-29.4823,29.4823,29.4823,0,0,0,-29.4823,-29.4823,29.4823,29.4823,0,0,0,-29.4823,29.4823h3.93098a25.5513,25.5513,0,0,1,25.5514,-25.5513,25.5513,25.5513,0,0,1,25.5514,25.5513,25.5513,25.5513,0,0,1,-25.5514,25.5513,25.5513,25.5513,0,0,1,-25.5514,-25.5513z" fill="#FFF"/><path stroke="#FFF" stroke-width="0.94343442" d="M508.308,71.3847a29.4823,29.4823,0,0,0,29.482,29.4823,29.4823,29.4823,0,0,0,29.483,-29.4823,29.4823,29.4823,0,0,0,-29.483,-29.4824,29.4823,29.4823,0,0,0,-29.482,29.4824h3.93098a25.5513,25.5513,0,0,1,25.5514,-25.5513,25.5513,25.5513,0,0,1,25.5514,25.5513,25.5513,25.5513,0,0,1,-25.5514,25.5513,25.5513,25.5513,0,0,1,-25.5514,-25.5513z" fill="#FFF"/><g transform="translate(-5.49288e-6,-1.9013808e-6)" fill="#FFF"><polygon points="183.947,147.384,259.318,138.607,256.688,126.761,297.608,114.562,288.437,89.537,248.371,110.446,253.18,120.298" transform="matrix(0.62747942,0,0,0.62747942,376.55215,261.89444)"/><polygon points="179.53,136.355,231.722,88.278,224.677,81.964,257.51,46.24,274.183,65.492,236.469,93.352,244.078,103.365" transform="matrix(0.62747942,0,0,0.62747942,376.55215,261.89444)"/><polygon points="172.136,128.371,202.299,68.588,193.278,65.285,213.659,16.58,235.666,28.624,208.208,71.329,218.236,77.209" transform="matrix(0.62747942,0,0,0.62747942,376.55215,261.89444)"/><polygon points="160.779,60.47,162.755,4.177,187.632,7.847,174.613,60.684,186.189,63.583,161.958,123.269,169.229,60.776" transform="matrix(0.62747942,0,0,0.62747942,376.55215,261.89444)"/><polygon points="135.144,4.977,108.468,10.731,129.65,68.639,136.601,65.591,150.334,122.049,151.826,61.458,142.055,62.75" transform="matrix(0.62747942,0,0,0.62747942,376.55215,261.89444)"/><polygon points="84.353,20.717,61.854,35.145,104.209,87.419,109.985,81.942,139.545,125.239,122.56,72.488,113.575,78.174" transform="matrix(0.62747942,0,0,0.62747942,376.55215,261.89444)"/><polygon points="41.823,53.842,25.223,76.367,88.211,111.649,91.417,104.69,130.642,131.817,100.375,92.202,93.292,101.34" transform="matrix(0.62747942,0,0,0.62747942,376.55215,261.89444)"/><polygon points="12.952,102.042,6,128.41,82.87,139.999,83.214,132.671,124.244,141.9,86.024,118.375,83.647,128.922" transform="matrix(0.62747942,0,0,0.62747942,376.55215,261.89444)"/><polygon points="122.119,153.982,83.447,145.615,84.063,156.789,7.833,157.316,9.978,173.965,5.564,174.857,11.921,201.527,17.748,200,13.578,182.977,86.496,166.167,85,159.333" transform="matrix(0.62747942,0,0,0.62747942,376.55215,261.89444)"/><polygon points="124.168,164.397,89.531,171.816,93.525,179.339,21.687,207.239,28.93,220.403,22.004,224.498,39.067,249.469,45.631,242.906,36.5,230.772,100.038,186.665,96.442,182.377" transform="matrix(0.62747942,0,0,0.62747942,376.55215,261.89444)"/><polygon points="130.796,174.843,103.706,190.465,110.328,196.828,51.786,249.384,63.853,260.022,57.335,267.697,80.237,283.542,84.689,273.292,72.635,265.728,117.288,200.837,113.363,198.368" transform="matrix(0.62747942,0,0,0.62747942,376.55215,261.89444)"/><polygon points="139.804,181.375,122.68,203.603,129.01,205.964,94.145,277.555,107.859,282.066,104.767,294.541,130.219,300.832,132.187,285.747,117.475,284.145,136.37,207.556,133.612,207.107" transform="matrix(0.62747942,0,0,0.62747942,376.55215,261.89444)"/><polygon points="150.351,184.298,143.348,207.92,149.008,207.379,142.15,285.817,154.828,284.793,154.669,302.598,182.87,299.678,177.84,279.958,165.024,283.12,155.505,205.85,152.5,206.667" transform="matrix(0.62747942,0,0,0.62747942,376.55215,261.89444)"/><polygon points="160.957,183.492,161.393,203.811,166.685,201.366,185.773,277.333,199.45,271.401,208.211,292.189,231.511,280.517,218.905,259.044,206.289,267.655,172.391,197.848,169.297,199.882" transform="matrix(0.62747942,0,0,0.62747942,376.55215,261.89444)"/><polygon points="170.445,179.304,175.563,195.359,180.759,190.006,224.867,254.037,234.322,244.489,252.455,264.949,271.635,244.398,247.472,226.317,239.789,237.799,182.966,186.976,181.883,188.882" transform="matrix(0.62747942,0,0,0.62747942,376.55215,261.89444)"/><polygon points="296.336,196.4,262.146,186.44,258.264,199.376,188.757,172.421,178.138,172.125,185.33,182.832,188.021,175.666,250.366,221.104,256.977,207.46,285.877,222.109" transform="matrix(0.62747942,0,0,0.62747942,376.55215,261.89444)"/><polygon points="302.303,142.737,262.125,147.623,262.786,157.967,189.353,158.624,182.833,161.417,189.51,165.869,189.531,161.636,263.091,179.508,263.813,165.924,301.763,169.765" transform="matrix(0.62747942,0,0,0.62747942,376.55215,261.89444)"/></g><path stroke-linejoin="miter" d="m363.636,29.0909,0,436.364" stroke="#FFF" stroke-linecap="butt" stroke-width="2.909091" fill="#FFF"/><path stroke-linejoin="miter" d="m581.818,29.0909,0,436.364" stroke="#FFF" stroke-linecap="butt" stroke-width="2.909091" fill="#FFF"/></g><g fill="#FFF"><g transform="translate(16.900001,0)"><path d="m610.624,48.2932-7.10524,0-13.336,9.52455,0,7.69825,12.9455-8.05407,0,44.7077,7.49578,0z"/><path d="m640.751,48.4071c-11.0147,0-16.4217,6.48846-16.4217,16.3535,0,10.7788,6.46652,17.2397,16.2702,17.2397,4.90293,0,9.78254-2.36919,11.2285-6.48382,0,18.877-3.72149,20.7861-11.1983,20.9976-5.19571,0.02204-8.54297-2.01913-8.87734-8.06002h-7.27159c0,5.04909,1.54596,14.3331,15.9368,14.4648,20.1942,0.18486,18.8182-21.1271,18.8262-32.038,0.006-8.62214-1.836-22.4738-18.493-22.4738zm0.22703,5.81726c6.57666,0.140728,9.65581,4.53156,9.69864,10.7484-0.0527,5.87244-3.21246,10.7394-9.18362,10.6794-5.97112-0.05997-9.99585-4.00345-9.98311-10.5582,0.0134-6.55469,2.89132-10.7144,9.46812-10.5736z"/><path d="m662.139,55.169,27.6791,0.000191-20.3481,46.7756,8.12151,0,19.941-46.7756,0.00014-6.95038-35.3937,0.00013z"/><path d="m710.105,63.7882c0-3.87361,1.47877-9.18935,8.73238-9.07695,7.25369,0.112392,9.33497,4.51951,7.04977,12.2276-2.28529,7.70804-24.2477,27.1113-24.6205,28.3613-0.12031,0.901864-0.0553,4.41543,0,6.6439h33.3645v-6.6439h-24.091c5.958-6.4478,23.551-18.9836,23.621-30.7409,0.32-8.0763-3.406-16.1442-14.442-16.1442-11.0361,0-17.9904,3.94983-18.0584,15.3731z"/></g><g transform="translate(-8.200076,0)" fill-rule="nonzero"><path d="m92.6328,102.089,0-56.0015-12.0491,0-16.6376,47.0905-0.172457,0-15.7821-47.091-13.3327,0,0,56.0015,8.1558,0,0-46.9793,15.9424,46.9793,8.7255,0,17.2869-46.9793,0,46.9793z"/><path d="m135.129,102.237-0.00047-38.255-6.98305,0,0,20.8145c0,5.69743-2.3128,12.2585-10.4479,12.2585-4.18986,0-7.4071-2.18609-7.4071-8.63062v-24.4424h-7.58197v26.8144c0,9.4341,7.35762,12.2366,13.1179,12.2366,6.28425,0,9.55167-1.9043,12.3191-6.64942v0.149839l0.00047,5.70351z"/><path d="m116.837,46.6311-7.207,0,0,8.4738,7.207,0z"/><path d="m130.855,46.6311-7.22833,0,0,8.4738,7.22833,0z"/><path d="M218.483,76.671c-0.524-6.8558-4.211-14.084-15.892-14.084-11.6805,0-17.7789,8.61344-17.4941,21.224,0.28483,12.6106,5.51745,19.2359,17.4941,19.4225,11.9766,0.18657,15.672-8.848,15.8914-15.181h-7.97745c-0.48258,3.66727-1.5535,8.81987-8.314,8.903-6.76049,0.08313-9.91239-7.12096-9.91239-13.9959,0-6.87498,3.44825-14.5946,10.3124-14.5946,6.86414,0,7.43142,6.16104,7.914,8.306l7.97743-0.000025z"/><path d="m260.675,77.6877c0-11.5573-7.6348-14.7064-13.6905-14.7064-6.2813,0-10.7718,3.32464-12.6339,5.89256h-0.15116v-22.1868h-7.22086v55.502h7.22086v-21.0808c0-10.2357,6.3417-11.9933,11.5504-11.9933,6.05573,0,7.4812,4.16441,7.50392,9.66548v23.4087h7.42124z"/><path d="m286.59,62.595c-14.1399-0.25188-18.7535,8.1521-18.7065,21.6252,0.0471,13.4731,8.78081,19.7203,18.639,19.5034,9.85819-0.21693,15.9102-5.69305,16.412-14.2545h-7.40602c-0.006,4.27062-1.93194,8.05874-8.88153,7.986s-11.2096-4.2112-11.2725-12.5421h27.9205c0-13.7871-2.56509-22.066-16.705-22.3179zm-0.10393,5.77205c6.69588,0,9.33604,4.3905,9.44246,10.2495h-20.554c0.064-5.3127,4.416-10.2495,11.112-10.2495z"/><path d="m342.696,76.8361c0-11.2641-7.81892-13.7489-13.7856-13.7489-6.63868,0-10.5485,4.61342-11.9519,6.72511v-6.02952h-7.18161v38.4543l7.18161-0.00005v-20.0202c0-10.7423,6.6224-13.1516,10.2132-13.1516,6.172,0,8.34162,2.97413,8.34162,9.8491v23.3227h7.18275z"/></g></g><path fill="#FFF" d="m169.669,76.8358c0-11.2641-7.81892-13.7489-13.7856-13.7489-6.63868,0-10.5485,4.61342-11.9519,6.72511v-6.02952h-7.18161v38.4546h7.18161v-20.0206c0-10.7423,6.6224-13.1516,10.2132-13.1516,6.172,0,8.34162,2.97413,8.34162,9.8491v23.323h7.18275z"/></svg>
